<svg xmlns="http://www.w3.org/2000/svg" viewBox="-5.5 0 1682.8 400" role="img" aria-label="Dr. Dharini Mahendira Rheumatology"><circle cx="200.0" cy="200.0" r="190.0" fill="#432a49"/><path d="M-3.5,295.0 Q200.0,287.97 403.5,295.0 Q200.0,302.03 -3.5,295.0 Z" fill="#a9781f"/><g transform="translate(25.0,275.6)" fill="#f7f3ec"><path d="M333.401123046875 708Q524.8018798828125 708 617.6022338867188 618.5Q710.402587890625 529 710.402587890625 362Q710.402587890625 253 664.9024047851562 171.5Q619.4022216796875 90 533.0018920898438 45.0Q446.6015625 0 324.401123046875 0Q309.0010986328125 0 283.40106201171875 1.0Q257.801025390625 2 230.30096435546875 2.5Q202.8009033203125 3 180.40087890625 3Q139.4005126953125 3 100.00018310546875 2.5Q60.599853515625 2 36.399658203125 0V20Q69.1995849609375 22 85.69952392578125 28.0Q102.199462890625 34 107.7994384765625 52.0Q113.3994140625 70 113.3994140625 106V602Q113.3994140625 639 107.7994384765625 656.5Q102.199462890625 674 85.49951171875 680.5Q68.799560546875 687 36.399658203125 688V708Q60.599853515625 707 100.00018310546875 705.5Q139.4005126953125 704 178.40087890625 705Q214.200927734375 706 259.20098876953125 707.0Q304.2010498046875 708 333.401123046875 708ZM324.402099609375 690Q278.402099609375 690 264.402099609375 673.0Q250.402099609375 656 250.402099609375 604V104Q250.402099609375 52 264.902099609375 35.0Q279.402099609375 18 325.402099609375 18Q418.0010986328125 18 470.400634765625 57.5Q522.8001708984375 97 544.6000366210938 173.0Q566.39990234375 249 566.39990234375 358Q566.39990234375 470 542.7000732421875 543.5Q519.000244140625 617 466.1007080078125 653.5Q413.201171875 690 324.402099609375 690Z" transform="translate(0.00,0) scale(0.21000,-0.21000)"/><path d="M872.20263671875 708V688Q839.802734375 687 823.102783203125 680.5Q806.40283203125 674 800.8028564453125 656.5Q795.202880859375 639 795.202880859375 602V106Q795.202880859375 70 801.0028686523438 52.0Q806.8028564453125 34 823.3027954101562 28.0Q839.802734375 22 872.20263671875 20V0Q846.00244140625 2 806.1021118164062 2.5Q766.2017822265625 3 725.201416015625 3Q680.2010498046875 3 640.8007202148438 2.5Q601.400390625 2 577.2001953125 0V20Q611.2001953125 22 628.7001953125 28.0Q646.2001953125 34 652.2001953125 52.0Q658.2001953125 70 658.2001953125 106V649.9996337890625L664.600341796875 648.999755859375L417.2001953125 -2.599853515625H401.2001953125L137.199462890625 643.5999755859375V148.001953125Q137.199462890625 99.6011962890625 143.2994384765625 73.100830078125Q149.3994140625 46.6004638671875 169.699462890625 35.30029296875Q189.99951171875 24.0001220703125 232.19970703125 20V0Q213.399658203125 2 183.1995849609375 2.5Q152.99951171875 3 126.199462890625 3Q102.3995361328125 3 77.89959716796875 2.5Q53.399658203125 2 37.19970703125 0V20Q69.9996337890625 24.0001220703125 86.49957275390625 34.9002685546875Q102.99951171875 45.8004150390625 108.5994873046875 70.90069580078125Q114.199462890625 96.0009765625 114.199462890625 140.00146484375V602Q114.199462890625 639 108.5994873046875 656.5Q102.99951171875 674 86.299560546875 680.5Q69.599609375 687 37.19970703125 688V708Q53.399658203125 707 77.89959716796875 706.0Q102.3995361328125 705 126.199462890625 705Q162.600341796875 705 197.90106201171875 706.0Q233.2017822265625 707 260.00244140625 708L475.4017333984375 170.8037109375L453.201416015625 152.8031005859375L662.200439453125 705Q677.400634765625 705 693.5009155273438 705.0Q709.6011962890625 705 725.201416015625 705Q766.2017822265625 705 806.1021118164062 706.0Q846.00244140625 707 872.20263671875 708Z" transform="translate(159.18,0) scale(0.21000,-0.21000)"/></g><g transform="translate(470.0,181.0)" fill="#432a49"><path d="M329.7203369140625 708Q518.6405639648438 708 610.2806701660156 618.5Q701.9207763671875 529 701.9207763671875 362Q701.9207763671875 253 657.0207214355469 171.5Q612.1206665039062 90 526.8005676269531 45.0Q441.48046875 0 320.7203369140625 0Q305.40032958984375 0 279.9203186035156 1.0Q254.4403076171875 2 227.14028930664062 2.5Q199.84027099609375 3 177.520263671875 3Q137.72015380859375 3 99.40005493164062 2.5Q61.0799560546875 2 37.5198974609375 0V20Q70.55987548828125 22 87.25985717773438 28.0Q103.9598388671875 34 109.63983154296875 52.0Q115.31982421875 70 115.31982421875 106V602Q115.31982421875 639 109.63983154296875 656.5Q103.9598388671875 674 87.099853515625 680.5Q70.2398681640625 687 37.5198974609375 688V708Q61.0799560546875 707 99.40005493164062 705.5Q137.72015380859375 704 175.520263671875 705Q211.1602783203125 706 255.96029663085938 707.0Q300.76031494140625 708 329.7203369140625 708ZM317.5206298828125 690Q271.5206298828125 690 257.5206298828125 673.0Q243.5206298828125 656 243.5206298828125 604V104Q243.5206298828125 52 258.0206298828125 35.0Q272.5206298828125 18 318.5206298828125 18Q414.40032958984375 18 468.3201904296875 57.5Q522.2400512695312 97 544.4800109863281 173.0Q566.719970703125 249 566.719970703125 358Q566.719970703125 470 542.4600219726562 543.5Q518.2000732421875 617 463.78021240234375 653.5Q409.3603515625 690 317.5206298828125 690Z" transform="translate(0.00,0) scale(0.11441,-0.11441)"/><path d="M354.7203369140625 530.280029296875Q384.60040283203125 530.280029296875 404.9403991699219 517.8399963378906Q425.2803955078125 505.39996337890625 435.6603698730469 485.97991943359375Q446.04034423828125 466.55987548828125 446.04034423828125 444.2398681640625Q446.04034423828125 412.8397216796875 427.34027099609375 391.4396667480469Q408.64019775390625 370.03961181640625 377.840087890625 370.03961181640625Q349.47991943359375 370.03961181640625 331.3998718261719 385.6196594238281Q313.31982421875 401.19970703125 313.31982421875 428.43975830078125Q313.31982421875 452.2398681640625 325.099853515625 468.4599304199219Q336.8798828125 484.67999267578125 352.75994873046875 494.9200439453125Q342.2398681640625 501.719970703125 328.2398681640625 499.47991943359375Q303.32000732421875 497.8798828125 282.1201171875 482.4199523925781Q260.92022705078125 466.96002197265625 246.12030029296875 443.5601501464844Q231.32037353515625 420.1602783203125 223.08041381835938 393.5804138183594Q214.8404541015625 367.00054931640625 214.8404541015625 343.16064453125V103Q214.8404541015625 54.32000732421875 240.62039184570312 37.660003662109375Q266.40032958984375 21 314.4403076171875 21V0Q291.4403076171875 1 248.32028198242188 2.5Q205.20025634765625 4 157.8802490234375 4Q120.36016845703125 4 82.86007690429688 2.5Q45.3599853515625 1 26.43994140625 0V21Q64.2398681640625 21 80.13983154296875 36.0Q96.039794921875 51 96.039794921875 93V407.280029296875Q96.039794921875 452.280029296875 81.31982421875 473.780029296875Q66.599853515625 495.280029296875 26.43994140625 495.280029296875V516.280029296875Q58.43994140625 513.280029296875 88.43994140625 513.280029296875Q124.16009521484375 513.280029296875 156.1002197265625 516.780029296875Q188.04034423828125 520.280029296875 214.8404541015625 527.280029296875V419.24041748046875Q226.48046875 447.2803955078125 246.50045776367188 472.62030029296875Q266.52044677734375 497.960205078125 294.0804138183594 514.1201171875Q321.640380859375 530.280029296875 354.7203369140625 530.280029296875Z" transform="translate(85.92,0) scale(0.11441,-0.11441)"/><path d="M130.80010986328125 128.080322265625Q163.520263671875 128.080322265625 184.76031494140625 108.28030395507812Q206.0003662109375 88.48028564453125 206.0003662109375 57.0401611328125Q206.0003662109375 25.60003662109375 184.76031494140625 5.800018310546875Q163.520263671875 -14 130.80010986328125 -14Q97.75994873046875 -14 76.67990112304688 5.800018310546875Q55.599853515625 25.60003662109375 55.599853515625 57.0401611328125Q55.599853515625 88.48028564453125 76.67990112304688 108.28030395507812Q97.75994873046875 128.080322265625 130.80010986328125 128.080322265625Z" transform="translate(138.20,0) scale(0.11441,-0.11441)"/><path d="M329.7203369140625 708Q518.6405639648438 708 610.2806701660156 618.5Q701.9207763671875 529 701.9207763671875 362Q701.9207763671875 253 657.0207214355469 171.5Q612.1206665039062 90 526.8005676269531 45.0Q441.48046875 0 320.7203369140625 0Q305.40032958984375 0 279.9203186035156 1.0Q254.4403076171875 2 227.14028930664062 2.5Q199.84027099609375 3 177.520263671875 3Q137.72015380859375 3 99.40005493164062 2.5Q61.0799560546875 2 37.5198974609375 0V20Q70.55987548828125 22 87.25985717773438 28.0Q103.9598388671875 34 109.63983154296875 52.0Q115.31982421875 70 115.31982421875 106V602Q115.31982421875 639 109.63983154296875 656.5Q103.9598388671875 674 87.099853515625 680.5Q70.2398681640625 687 37.5198974609375 688V708Q61.0799560546875 707 99.40005493164062 705.5Q137.72015380859375 704 175.520263671875 705Q211.1602783203125 706 255.96029663085938 707.0Q300.76031494140625 708 329.7203369140625 708ZM317.5206298828125 690Q271.5206298828125 690 257.5206298828125 673.0Q243.5206298828125 656 243.5206298828125 604V104Q243.5206298828125 52 258.0206298828125 35.0Q272.5206298828125 18 318.5206298828125 18Q414.40032958984375 18 468.3201904296875 57.5Q522.2400512695312 97 544.4800109863281 173.0Q566.719970703125 249 566.719970703125 358Q566.719970703125 470 542.4600219726562 543.5Q518.2000732421875 617 463.78021240234375 653.5Q409.3603515625 690 317.5206298828125 690Z" transform="translate(195.75,0) scale(0.11441,-0.11441)"/><path d="M207.760498046875 782.6799926757812V424.68035888671875Q233.1204833984375 483.72015380859375 277.700439453125 507.0000915527344Q322.2803955078125 530.280029296875 374.24041748046875 530.280029296875Q414.80047607421875 530.280029296875 440.6204833984375 519.8000183105469Q466.44049072265625 509.32000732421875 482.48046875 491.6400146484375Q500.200439453125 472.280029296875 507.88043212890625 442.280029296875Q515.5604248046875 412.280029296875 515.5604248046875 361.280029296875V93Q515.5604248046875 51 531.4603881835938 36.0Q547.3603515625 21 585.1602783203125 21V0Q567.2002563476562 1 530.4402160644531 2.5Q493.68017578125 4 458.7601318359375 4Q422.88006591796875 4 388.6600036621094 2.5Q354.43994140625 1 337.159912109375 0V21Q369.9598388671875 21 383.35980224609375 36.0Q396.759765625 51 396.759765625 93V393.520263671875Q396.759765625 421.3201904296875 391.759765625 443.4801025390625Q386.759765625 465.6400146484375 371.49981689453125 478.75994873046875Q356.2398681640625 491.8798828125 326 491.8798828125Q292.36016845703125 491.8798828125 265.6602783203125 473.3599853515625Q238.96038818359375 454.840087890625 223.36044311523438 421.6802673339844Q207.760498046875 388.52044677734375 207.760498046875 345.76068115234375V93Q207.760498046875 51 221.32046508789062 36.0Q234.88043212890625 21 267.3603515625 21V0Q250.40032958984375 1 217.14028930664062 2.5Q183.8802490234375 4 148.960205078125 4Q113.08013916015625 4 75.52008056640625 2.5Q37.96002197265625 1 19.3599853515625 0V21Q57.159912109375 21 73.05987548828125 36.0Q88.9598388671875 51 88.9598388671875 93V662.6799926757812Q88.9598388671875 707.6799926757812 74.2398681640625 729.1799926757812Q59.5198974609375 750.6799926757812 19.3599853515625 750.6799926757812V771.6799926757812Q51.3599853515625 768.6799926757812 81.3599853515625 768.6799926757812Q117.08013916015625 768.6799926757812 149.020263671875 772.1799926757812Q180.96038818359375 775.6799926757812 207.760498046875 782.6799926757812Z" transform="translate(281.67,0) scale(0.11441,-0.11441)"/><path d="M166.19989013671875 -7Q123.27984619140625 -7 93.27984619140625 9.300018310546875Q63.27984619140625 25.60003662109375 48.41986083984375 53.9200439453125Q33.55987548828125 82.24005126953125 33.55987548828125 117.6400146484375Q33.55987548828125 161 53.579864501953125 188.51998901367188Q73.599853515625 216.03997802734375 105.11984252929688 232.87997436523438Q136.63983154296875 249.719970703125 171.65982055664062 261.0599670410156Q206.6798095703125 272.39996337890625 238.19979858398438 282.89996337890625Q269.71978759765625 293.39996337890625 289.7397766113281 307.5599670410156Q309.759765625 321.719970703125 309.759765625 344.719970703125V415.36016845703125Q309.759765625 449.03997802734375 299.49981689453125 470.0799560546875Q289.2398681640625 491.11993408203125 270.159912109375 500.6999816894531Q251.0799560546875 510.280029296875 223.7999267578125 510.280029296875Q201.67999267578125 510.280029296875 177.66009521484375 504.0800476074219Q153.64019775390625 497.88006591796875 138.56024169921875 480.36016845703125Q162.68035888671875 473.4801025390625 177.32037353515625 455.0800476074219Q191.96038818359375 436.67999267578125 191.96038818359375 410.719970703125Q191.96038818359375 380.91986083984375 172.12030029296875 363.6997985839844Q152.28021240234375 346.479736328125 123.1201171875 346.479736328125Q90.60003662109375 346.479736328125 74.37997436523438 367.0597839355469Q58.159912109375 387.63983154296875 58.159912109375 415.11993408203125Q58.159912109375 442.719970703125 71.95993041992188 460.4800109863281Q85.75994873046875 478.24005126953125 109.280029296875 493.52008056640625Q134.52008056640625 509.840087890625 172.78012084960938 520.06005859375Q211.0401611328125 530.280029296875 257.0401611328125 530.280029296875Q300.6002197265625 530.280029296875 333.76031494140625 520.780029296875Q366.92041015625 511.280029296875 389.44049072265625 489.11993408203125Q413.8404541015625 465.75994873046875 421.200439453125 431.7399597167969Q428.5604248046875 397.719970703125 428.5604248046875 348.43994140625V73.6400146484375Q428.5604248046875 48.6400146484375 434.7803955078125 38.280029296875Q441.0003662109375 27.9200439453125 454.76031494140625 27.9200439453125Q464.80029296875 27.9200439453125 474.0002746582031 32.9200439453125Q483.20025634765625 37.9200439453125 494.960205078125 47L505.64019775390625 30Q484.3201904296875 13.03997802734375 461.0000915527344 3.019989013671875Q437.67999267578125 -7 404.39996337890625 -7Q370.91986083984375 -7 350.4798278808594 3.160003662109375Q330.039794921875 13.32000732421875 320.539794921875 32.17999267578125Q311.039794921875 51.03997802734375 310.71978759765625 77.83990478515625Q285.63983154296875 36.67999267578125 250.05987548828125 14.839996337890625Q214.47991943359375 -7 166.19989013671875 -7ZM221.080322265625 45.80029296875Q247.0401611328125 45.80029296875 269.1400146484375 59.840179443359375Q291.2398681640625 73.88006591796875 309.759765625 102.91986083984375V303.719970703125Q299.35980224609375 288 280.0398864746094 276.17999267578125Q260.719970703125 264.3599853515625 238.52008056640625 252.37997436523438Q216.3201904296875 240.39996337890625 196.30029296875 225.05996704101562Q176.2803955078125 209.719970703125 163.32046508789062 186.48001098632812Q150.36053466796875 163.24005126953125 150.36053466796875 127.72015380859375Q150.36053466796875 88.36016845703125 169.6204833984375 67.08023071289062Q188.88043212890625 45.80029296875 221.080322265625 45.80029296875Z" transform="translate(350.20,0) scale(0.11441,-0.11441)"/><path d="M354.7203369140625 530.280029296875Q384.60040283203125 530.280029296875 404.9403991699219 517.8399963378906Q425.2803955078125 505.39996337890625 435.6603698730469 485.97991943359375Q446.04034423828125 466.55987548828125 446.04034423828125 444.2398681640625Q446.04034423828125 412.8397216796875 427.34027099609375 391.4396667480469Q408.64019775390625 370.03961181640625 377.840087890625 370.03961181640625Q349.47991943359375 370.03961181640625 331.3998718261719 385.6196594238281Q313.31982421875 401.19970703125 313.31982421875 428.43975830078125Q313.31982421875 452.2398681640625 325.099853515625 468.4599304199219Q336.8798828125 484.67999267578125 352.75994873046875 494.9200439453125Q342.2398681640625 501.719970703125 328.2398681640625 499.47991943359375Q303.32000732421875 497.8798828125 282.1201171875 482.4199523925781Q260.92022705078125 466.96002197265625 246.12030029296875 443.5601501464844Q231.32037353515625 420.1602783203125 223.08041381835938 393.5804138183594Q214.8404541015625 367.00054931640625 214.8404541015625 343.16064453125V103Q214.8404541015625 54.32000732421875 240.62039184570312 37.660003662109375Q266.40032958984375 21 314.4403076171875 21V0Q291.4403076171875 1 248.32028198242188 2.5Q205.20025634765625 4 157.8802490234375 4Q120.36016845703125 4 82.86007690429688 2.5Q45.3599853515625 1 26.43994140625 0V21Q64.2398681640625 21 80.13983154296875 36.0Q96.039794921875 51 96.039794921875 93V407.280029296875Q96.039794921875 452.280029296875 81.31982421875 473.780029296875Q66.599853515625 495.280029296875 26.43994140625 495.280029296875V516.280029296875Q58.43994140625 513.280029296875 88.43994140625 513.280029296875Q124.16009521484375 513.280029296875 156.1002197265625 516.780029296875Q188.04034423828125 520.280029296875 214.8404541015625 527.280029296875V419.24041748046875Q226.48046875 447.2803955078125 246.50045776367188 472.62030029296875Q266.52044677734375 497.960205078125 294.0804138183594 514.1201171875Q321.640380859375 530.280029296875 354.7203369140625 530.280029296875Z" transform="translate(408.43,0) scale(0.11441,-0.11441)"/><path d="M148.7601318359375 770.4401245117188Q183.080322265625 770.4401245117188 205.12039184570312 750.6401062011719Q227.16046142578125 730.840087890625 227.16046142578125 699.3999633789062Q227.16046142578125 667.9598388671875 205.12039184570312 648.1598205566406Q183.080322265625 628.3598022460938 148.7601318359375 628.3598022460938Q114.43994140625 628.3598022460938 92.39987182617188 648.1598205566406Q70.35980224609375 667.9598388671875 70.35980224609375 699.3999633789062Q70.35980224609375 730.840087890625 92.39987182617188 750.6401062011719Q114.43994140625 770.4401245117188 148.7601318359375 770.4401245117188ZM214.8404541015625 527.280029296875V93.11487442407852Q214.8404541015625 51 230.74041748046875 36.0Q246.640380859375 21 284.4403076171875 21V0Q266.5547059524891 1 230.25745551530704 2.5Q193.960205078125 4 156.72015380859375 4Q120.20932711087741 4 82.62465256911058 2.5Q45.03997802734375 1 26.43994140625 0V21Q64.2398681640625 21 80.13983154296875 36.0Q96.039794921875 51 96.039794921875 93.13440307617188V407.1360260009766Q96.039794921875 452.280029296875 81.38719418174342 473.780029296875Q66.73459344161185 495.280029296875 26.43994140625 495.280029296875V516.280029296875Q58.43994140625 513.280029296875 88.43994140625 513.280029296875Q124.16009521484375 513.280029296875 156.1002197265625 516.780029296875Q188.04034423828125 520.280029296875 214.8404541015625 527.280029296875Z" transform="translate(460.72,0) scale(0.11441,-0.11441)"/><path d="M381.32037353515625 530.280029296875Q421.88043212890625 530.280029296875 447.700439453125 519.8000183105469Q473.52044677734375 509.32000732421875 489.5604248046875 491.6400146484375Q507.2803955078125 472.280029296875 514.9603881835938 442.280029296875Q522.640380859375 412.280029296875 522.640380859375 361.280029296875V93Q522.640380859375 51 538.5403442382812 36.0Q554.4403076171875 21 592.240234375 21V0Q574.2802124023438 1 537.5201721191406 2.5Q500.7601318359375 4 465.840087890625 4Q429.96002197265625 4 395.7399597167969 2.5Q361.5198974609375 1 344.2398681640625 0V21Q377.039794921875 21 390.43975830078125 36.0Q403.8397216796875 51 403.8397216796875 93V393.520263671875Q403.8397216796875 421.3201904296875 398.8397216796875 443.4801025390625Q393.8397216796875 465.6400146484375 378.57977294921875 478.75994873046875Q363.31982421875 491.8798828125 333.0799560546875 491.8798828125Q298.7601318359375 491.8798828125 272.06024169921875 472.67999267578125Q245.3603515625 453.4801025390625 230.10040283203125 419.98028564453125Q214.8404541015625 386.48046875 214.8404541015625 345.0806884765625V93Q214.8404541015625 51 228.40042114257812 36.0Q241.96038818359375 21 274.4403076171875 21V0Q257.48028564453125 1 224.22024536132812 2.5Q190.960205078125 4 156.0401611328125 4Q120.16009521484375 4 82.60003662109375 2.5Q45.03997802734375 1 26.43994140625 0V21Q64.2398681640625 21 80.13983154296875 36.0Q96.039794921875 51 96.039794921875 93V407.280029296875Q96.039794921875 452.280029296875 81.31982421875 473.780029296875Q66.599853515625 495.280029296875 26.43994140625 495.280029296875V516.280029296875Q58.43994140625 513.280029296875 88.43994140625 513.280029296875Q124.16009521484375 513.280029296875 156.1002197265625 516.780029296875Q188.04034423828125 520.280029296875 214.8404541015625 527.280029296875V424.0003662109375Q240.200439453125 483.0401611328125 284.7803955078125 506.66009521484375Q329.3603515625 530.280029296875 381.32037353515625 530.280029296875Z" transform="translate(495.61,0) scale(0.11441,-0.11441)"/><path d="M148.7601318359375 770.4401245117188Q183.080322265625 770.4401245117188 205.12039184570312 750.6401062011719Q227.16046142578125 730.840087890625 227.16046142578125 699.3999633789062Q227.16046142578125 667.9598388671875 205.12039184570312 648.1598205566406Q183.080322265625 628.3598022460938 148.7601318359375 628.3598022460938Q114.43994140625 628.3598022460938 92.39987182617188 648.1598205566406Q70.35980224609375 667.9598388671875 70.35980224609375 699.3999633789062Q70.35980224609375 730.840087890625 92.39987182617188 750.6401062011719Q114.43994140625 770.4401245117188 148.7601318359375 770.4401245117188ZM214.8404541015625 527.280029296875V93.11487442407852Q214.8404541015625 51 230.74041748046875 36.0Q246.640380859375 21 284.4403076171875 21V0Q266.5547059524891 1 230.25745551530704 2.5Q193.960205078125 4 156.72015380859375 4Q120.20932711087741 4 82.62465256911058 2.5Q45.03997802734375 1 26.43994140625 0V21Q64.2398681640625 21 80.13983154296875 36.0Q96.039794921875 51 96.039794921875 93.13440307617188V407.1360260009766Q96.039794921875 452.280029296875 81.38719418174342 473.780029296875Q66.73459344161185 495.280029296875 26.43994140625 495.280029296875V516.280029296875Q58.43994140625 513.280029296875 88.43994140625 513.280029296875Q124.16009521484375 513.280029296875 156.1002197265625 516.780029296875Q188.04034423828125 520.280029296875 214.8404541015625 527.280029296875Z" transform="translate(564.94,0) scale(0.11441,-0.11441)"/><path d="M863.560791015625 708V688Q830.8408203125 687 813.9808349609375 680.5Q797.120849609375 674 791.4408569335938 656.5Q785.7608642578125 639 785.7608642578125 602V106Q785.7608642578125 70 791.6008605957031 52.0Q797.4408569335938 34 814.1408386230469 28.0Q830.8408203125 22 863.560791015625 20V0Q838.000732421875 2 799.1806335449219 2.5Q760.3605346679688 3 720.5604248046875 3Q676.7603149414062 3 638.4402160644531 2.5Q600.1201171875 2 576.56005859375 0V20Q610.56005859375 22 628.06005859375 28.0Q645.56005859375 34 651.56005859375 52.0Q657.56005859375 70 657.56005859375 106V651.1998901367188L663.4801025390625 649.7999267578125L416.56005859375 -3.0799560546875H400.56005859375L138.9598388671875 643.6799926757812V141.6005859375Q138.9598388671875 95.68035888671875 145.13983154296875 70.3802490234375Q151.31982421875 45.08013916015625 171.4598388671875 34.340087890625Q191.599853515625 23.60003662109375 233.159912109375 20V0Q214.5198974609375 2 184.55987548828125 2.5Q154.599853515625 3 127.9598388671875 3Q103.91986083984375 3 79.21987915039062 2.5Q54.5198974609375 2 38.159912109375 0V20Q71.19989013671875 23.60003662109375 87.89987182617188 34.02008056640625Q104.599853515625 44.44012451171875 110.27984619140625 68.62020874023438Q115.9598388671875 92.80029296875 115.9598388671875 135.200439453125V602Q115.9598388671875 639 110.27984619140625 656.5Q104.599853515625 674 87.7398681640625 680.5Q70.8798828125 687 38.159912109375 688V708Q54.5198974609375 707 79.21987915039062 706.0Q103.91986083984375 705 127.9598388671875 705Q161.4801025390625 705 194.42031860351562 706.0Q227.36053466796875 707 252.000732421875 708L469.72052001953125 158.64111328125L448.5604248046875 142.64093017578125L660.7601318359375 705Q675.3201904296875 705 690.5002746582031 705.0Q705.6803588867188 705 720.5604248046875 705Q760.3605346679688 705 799.1806335449219 706.0Q838.000732421875 707 863.560791015625 708Z" transform="translate(627.41,0) scale(0.11441,-0.11441)"/><path d="M166.19989013671875 -7Q123.27984619140625 -7 93.27984619140625 9.300018310546875Q63.27984619140625 25.60003662109375 48.41986083984375 53.9200439453125Q33.55987548828125 82.24005126953125 33.55987548828125 117.6400146484375Q33.55987548828125 161 53.579864501953125 188.51998901367188Q73.599853515625 216.03997802734375 105.11984252929688 232.87997436523438Q136.63983154296875 249.719970703125 171.65982055664062 261.0599670410156Q206.6798095703125 272.39996337890625 238.19979858398438 282.89996337890625Q269.71978759765625 293.39996337890625 289.7397766113281 307.5599670410156Q309.759765625 321.719970703125 309.759765625 344.719970703125V415.36016845703125Q309.759765625 449.03997802734375 299.49981689453125 470.0799560546875Q289.2398681640625 491.11993408203125 270.159912109375 500.6999816894531Q251.0799560546875 510.280029296875 223.7999267578125 510.280029296875Q201.67999267578125 510.280029296875 177.66009521484375 504.0800476074219Q153.64019775390625 497.88006591796875 138.56024169921875 480.36016845703125Q162.68035888671875 473.4801025390625 177.32037353515625 455.0800476074219Q191.96038818359375 436.67999267578125 191.96038818359375 410.719970703125Q191.96038818359375 380.91986083984375 172.12030029296875 363.6997985839844Q152.28021240234375 346.479736328125 123.1201171875 346.479736328125Q90.60003662109375 346.479736328125 74.37997436523438 367.0597839355469Q58.159912109375 387.63983154296875 58.159912109375 415.11993408203125Q58.159912109375 442.719970703125 71.95993041992188 460.4800109863281Q85.75994873046875 478.24005126953125 109.280029296875 493.52008056640625Q134.52008056640625 509.840087890625 172.78012084960938 520.06005859375Q211.0401611328125 530.280029296875 257.0401611328125 530.280029296875Q300.6002197265625 530.280029296875 333.76031494140625 520.780029296875Q366.92041015625 511.280029296875 389.44049072265625 489.11993408203125Q413.8404541015625 465.75994873046875 421.200439453125 431.7399597167969Q428.5604248046875 397.719970703125 428.5604248046875 348.43994140625V73.6400146484375Q428.5604248046875 48.6400146484375 434.7803955078125 38.280029296875Q441.0003662109375 27.9200439453125 454.76031494140625 27.9200439453125Q464.80029296875 27.9200439453125 474.0002746582031 32.9200439453125Q483.20025634765625 37.9200439453125 494.960205078125 47L505.64019775390625 30Q484.3201904296875 13.03997802734375 461.0000915527344 3.019989013671875Q437.67999267578125 -7 404.39996337890625 -7Q370.91986083984375 -7 350.4798278808594 3.160003662109375Q330.039794921875 13.32000732421875 320.539794921875 32.17999267578125Q311.039794921875 51.03997802734375 310.71978759765625 77.83990478515625Q285.63983154296875 36.67999267578125 250.05987548828125 14.839996337890625Q214.47991943359375 -7 166.19989013671875 -7ZM221.080322265625 45.80029296875Q247.0401611328125 45.80029296875 269.1400146484375 59.840179443359375Q291.2398681640625 73.88006591796875 309.759765625 102.91986083984375V303.719970703125Q299.35980224609375 288 280.0398864746094 276.17999267578125Q260.719970703125 264.3599853515625 238.52008056640625 252.37997436523438Q216.3201904296875 240.39996337890625 196.30029296875 225.05996704101562Q176.2803955078125 209.719970703125 163.32046508789062 186.48001098632812Q150.36053466796875 163.24005126953125 150.36053466796875 127.72015380859375Q150.36053466796875 88.36016845703125 169.6204833984375 67.08023071289062Q188.88043212890625 45.80029296875 221.080322265625 45.80029296875Z" transform="translate(730.49,0) scale(0.11441,-0.11441)"/><path d="M207.760498046875 782.6799926757812V424.68035888671875Q233.1204833984375 483.72015380859375 277.700439453125 507.0000915527344Q322.2803955078125 530.280029296875 374.24041748046875 530.280029296875Q414.80047607421875 530.280029296875 440.6204833984375 519.8000183105469Q466.44049072265625 509.32000732421875 482.48046875 491.6400146484375Q500.200439453125 472.280029296875 507.88043212890625 442.280029296875Q515.5604248046875 412.280029296875 515.5604248046875 361.280029296875V93Q515.5604248046875 51 531.4603881835938 36.0Q547.3603515625 21 585.1602783203125 21V0Q567.2002563476562 1 530.4402160644531 2.5Q493.68017578125 4 458.7601318359375 4Q422.88006591796875 4 388.6600036621094 2.5Q354.43994140625 1 337.159912109375 0V21Q369.9598388671875 21 383.35980224609375 36.0Q396.759765625 51 396.759765625 93V393.520263671875Q396.759765625 421.3201904296875 391.759765625 443.4801025390625Q386.759765625 465.6400146484375 371.49981689453125 478.75994873046875Q356.2398681640625 491.8798828125 326 491.8798828125Q292.36016845703125 491.8798828125 265.6602783203125 473.3599853515625Q238.96038818359375 454.840087890625 223.36044311523438 421.6802673339844Q207.760498046875 388.52044677734375 207.760498046875 345.76068115234375V93Q207.760498046875 51 221.32046508789062 36.0Q234.88043212890625 21 267.3603515625 21V0Q250.40032958984375 1 217.14028930664062 2.5Q183.8802490234375 4 148.960205078125 4Q113.08013916015625 4 75.52008056640625 2.5Q37.96002197265625 1 19.3599853515625 0V21Q57.159912109375 21 73.05987548828125 36.0Q88.9598388671875 51 88.9598388671875 93V662.6799926757812Q88.9598388671875 707.6799926757812 74.2398681640625 729.1799926757812Q59.5198974609375 750.6799926757812 19.3599853515625 750.6799926757812V771.6799926757812Q51.3599853515625 768.6799926757812 81.3599853515625 768.6799926757812Q117.08013916015625 768.6799926757812 149.020263671875 772.1799926757812Q180.96038818359375 775.6799926757812 207.760498046875 782.6799926757812Z" transform="translate(788.72,0) scale(0.11441,-0.11441)"/><path d="M277.1201171875 530.280029296875Q365.1201171875 530.280029296875 414.94012451171875 477.4200439453125Q464.7601318359375 424.56005859375 464.7601318359375 309H124.5604248046875L123.24041748046875 328H352.759765625Q354.43975830078125 377 346.039794921875 418.5Q337.63983154296875 460 319.4999084472656 485.0Q301.3599853515625 510 272.16009521484375 510Q232.240234375 510 202.66036987304688 465.1200256347656Q173.08050537109375 420.24005126953125 166.72052001953125 319.280029296875L170.04052734375 314Q168.36053466796875 300.60003662109375 167.6805419921875 285.16009521484375Q167.00054931640625 269.72015380859375 167.00054931640625 253.960205078125Q167.00054931640625 185.3201904296875 187.56051635742188 139.520263671875Q208.1204833984375 93.7203369140625 240.74041748046875 71.58041381835938Q273.3603515625 49.44049072265625 307.84027099609375 49.44049072265625Q332.72015380859375 49.44049072265625 357.3200988769531 57.180450439453125Q381.9200439453125 64.92041015625 404.9200439453125 84.52035522460938Q427.9200439453125 104.12030029296875 446.52008056640625 138.8802490234375L465.56005859375 131.520263671875Q454.24005126953125 96.28021240234375 428.7600402832031 62.560150146484375Q403.280029296875 28.840087890625 364.0 7.4200439453125Q324.719970703125 -14 271.5198974609375 -14Q202.0799560546875 -14 150.25994873046875 16.75994873046875Q98.43994140625 47.5198974609375 69.81991577148438 106.49990844726562Q41.19989013671875 165.47991943359375 41.19989013671875 249.4801025390625Q41.19989013671875 340.0401611328125 71.11993408203125 402.58013916015625Q101.03997802734375 465.1201171875 154.44003295898438 497.7000732421875Q207.840087890625 530.280029296875 277.1201171875 530.280029296875Z" transform="translate(857.25,0) scale(0.11441,-0.11441)"/><path d="M381.32037353515625 530.280029296875Q421.88043212890625 530.280029296875 447.700439453125 519.8000183105469Q473.52044677734375 509.32000732421875 489.5604248046875 491.6400146484375Q507.2803955078125 472.280029296875 514.9603881835938 442.280029296875Q522.640380859375 412.280029296875 522.640380859375 361.280029296875V93Q522.640380859375 51 538.5403442382812 36.0Q554.4403076171875 21 592.240234375 21V0Q574.2802124023438 1 537.5201721191406 2.5Q500.7601318359375 4 465.840087890625 4Q429.96002197265625 4 395.7399597167969 2.5Q361.5198974609375 1 344.2398681640625 0V21Q377.039794921875 21 390.43975830078125 36.0Q403.8397216796875 51 403.8397216796875 93V393.520263671875Q403.8397216796875 421.3201904296875 398.8397216796875 443.4801025390625Q393.8397216796875 465.6400146484375 378.57977294921875 478.75994873046875Q363.31982421875 491.8798828125 333.0799560546875 491.8798828125Q298.7601318359375 491.8798828125 272.06024169921875 472.67999267578125Q245.3603515625 453.4801025390625 230.10040283203125 419.98028564453125Q214.8404541015625 386.48046875 214.8404541015625 345.0806884765625V93Q214.8404541015625 51 228.40042114257812 36.0Q241.96038818359375 21 274.4403076171875 21V0Q257.48028564453125 1 224.22024536132812 2.5Q190.960205078125 4 156.0401611328125 4Q120.16009521484375 4 82.60003662109375 2.5Q45.03997802734375 1 26.43994140625 0V21Q64.2398681640625 21 80.13983154296875 36.0Q96.039794921875 51 96.039794921875 93V407.280029296875Q96.039794921875 452.280029296875 81.31982421875 473.780029296875Q66.599853515625 495.280029296875 26.43994140625 495.280029296875V516.280029296875Q58.43994140625 513.280029296875 88.43994140625 513.280029296875Q124.16009521484375 513.280029296875 156.1002197265625 516.780029296875Q188.04034423828125 520.280029296875 214.8404541015625 527.280029296875V424.0003662109375Q240.200439453125 483.0401611328125 284.7803955078125 506.66009521484375Q329.3603515625 530.280029296875 381.32037353515625 530.280029296875Z" transform="translate(915.03,0) scale(0.11441,-0.11441)"/><path d="M500.96038818359375 783.3599853515625V109.32000732421875Q500.96038818359375 64.32000732421875 516.1803588867188 42.82000732421875Q531.4003295898438 21.32000732421875 570.5602416992188 21.32000732421875V0.32000732421875Q539.5602416992188 3.32000732421875 508.56024169921875 3.32000732421875Q472.840087890625 3.32000732421875 441.0599670410156 0.32000732421875Q409.27984619140625 -2.67999267578125 382.15972900390625 -10.67999267578125V663.3599853515625Q382.15972900390625 708.3599853515625 367.43975830078125 729.8599853515625Q352.71978759765625 751.3599853515625 312.55987548828125 751.3599853515625V772.3599853515625Q344.55987548828125 769.3599853515625 374.55987548828125 769.3599853515625Q410.280029296875 769.3599853515625 442.22015380859375 772.8599853515625Q474.1602783203125 776.3599853515625 500.96038818359375 783.3599853515625ZM267.27984619140625 530.280029296875Q311.27984619140625 530.280029296875 347.0597839355469 512.6401062011719Q382.8397216796875 495.00018310546875 399.039794921875 452.96038818359375L386.6798095703125 442.640380859375Q372.99981689453125 474.72015380859375 347.8199157714844 489.4000549316406Q322.6400146484375 504.0799560546875 290.960205078125 504.0799560546875Q236.12030029296875 504.0799560546875 201.90042114257812 443.719970703125Q167.6805419921875 383.3599853515625 168.36053466796875 257.96002197265625Q168.36053466796875 174.719970703125 181.78048706054688 122.82000732421875Q195.200439453125 70.9200439453125 220.90032958984375 46.9801025390625Q246.6002197265625 23.0401611328125 282.280029296875 23.0401611328125Q319.7999267578125 23.0401611328125 349.9598388671875 54.080047607421875Q380.1197509765625 85.11993408203125 384.87969970703125 142.6396484375L393.03961181640625 117.43939208984375Q381.19952392578125 53.59967041015625 344.3796081542969 19.799835205078125Q307.5596923828125 -14 246.55987548828125 -14Q186.159912109375 -14 139.659912109375 15.519989013671875Q93.159912109375 45.03997802734375 67.85989379882812 105.3599853515625Q42.55987548828125 165.67999267578125 42.55987548828125 258.9200439453125Q42.55987548828125 349.9200439453125 72.77984619140625 410.10003662109375Q102.99981689453125 470.280029296875 154.01980590820312 500.280029296875Q205.039794921875 530.280029296875 267.27984619140625 530.280029296875Z" transform="translate(984.36,0) scale(0.11441,-0.11441)"/><path d="M148.7601318359375 770.4401245117188Q183.080322265625 770.4401245117188 205.12039184570312 750.6401062011719Q227.16046142578125 730.840087890625 227.16046142578125 699.3999633789062Q227.16046142578125 667.9598388671875 205.12039184570312 648.1598205566406Q183.080322265625 628.3598022460938 148.7601318359375 628.3598022460938Q114.43994140625 628.3598022460938 92.39987182617188 648.1598205566406Q70.35980224609375 667.9598388671875 70.35980224609375 699.3999633789062Q70.35980224609375 730.840087890625 92.39987182617188 750.6401062011719Q114.43994140625 770.4401245117188 148.7601318359375 770.4401245117188ZM214.8404541015625 527.280029296875V93.11487442407852Q214.8404541015625 51 230.74041748046875 36.0Q246.640380859375 21 284.4403076171875 21V0Q266.5547059524891 1 230.25745551530704 2.5Q193.960205078125 4 156.72015380859375 4Q120.20932711087741 4 82.62465256911058 2.5Q45.03997802734375 1 26.43994140625 0V21Q64.2398681640625 21 80.13983154296875 36.0Q96.039794921875 51 96.039794921875 93.13440307617188V407.1360260009766Q96.039794921875 452.280029296875 81.38719418174342 473.780029296875Q66.73459344161185 495.280029296875 26.43994140625 495.280029296875V516.280029296875Q58.43994140625 513.280029296875 88.43994140625 513.280029296875Q124.16009521484375 513.280029296875 156.1002197265625 516.780029296875Q188.04034423828125 520.280029296875 214.8404541015625 527.280029296875Z" transform="translate(1051.86,0) scale(0.11441,-0.11441)"/><path d="M354.7203369140625 530.280029296875Q384.60040283203125 530.280029296875 404.9403991699219 517.8399963378906Q425.2803955078125 505.39996337890625 435.6603698730469 485.97991943359375Q446.04034423828125 466.55987548828125 446.04034423828125 444.2398681640625Q446.04034423828125 412.8397216796875 427.34027099609375 391.4396667480469Q408.64019775390625 370.03961181640625 377.840087890625 370.03961181640625Q349.47991943359375 370.03961181640625 331.3998718261719 385.6196594238281Q313.31982421875 401.19970703125 313.31982421875 428.43975830078125Q313.31982421875 452.2398681640625 325.099853515625 468.4599304199219Q336.8798828125 484.67999267578125 352.75994873046875 494.9200439453125Q342.2398681640625 501.719970703125 328.2398681640625 499.47991943359375Q303.32000732421875 497.8798828125 282.1201171875 482.4199523925781Q260.92022705078125 466.96002197265625 246.12030029296875 443.5601501464844Q231.32037353515625 420.1602783203125 223.08041381835938 393.5804138183594Q214.8404541015625 367.00054931640625 214.8404541015625 343.16064453125V103Q214.8404541015625 54.32000732421875 240.62039184570312 37.660003662109375Q266.40032958984375 21 314.4403076171875 21V0Q291.4403076171875 1 248.32028198242188 2.5Q205.20025634765625 4 157.8802490234375 4Q120.36016845703125 4 82.86007690429688 2.5Q45.3599853515625 1 26.43994140625 0V21Q64.2398681640625 21 80.13983154296875 36.0Q96.039794921875 51 96.039794921875 93V407.280029296875Q96.039794921875 452.280029296875 81.31982421875 473.780029296875Q66.599853515625 495.280029296875 26.43994140625 495.280029296875V516.280029296875Q58.43994140625 513.280029296875 88.43994140625 513.280029296875Q124.16009521484375 513.280029296875 156.1002197265625 516.780029296875Q188.04034423828125 520.280029296875 214.8404541015625 527.280029296875V419.24041748046875Q226.48046875 447.2803955078125 246.50045776367188 472.62030029296875Q266.52044677734375 497.960205078125 294.0804138183594 514.1201171875Q321.640380859375 530.280029296875 354.7203369140625 530.280029296875Z" transform="translate(1086.75,0) scale(0.11441,-0.11441)"/><path d="M166.19989013671875 -7Q123.27984619140625 -7 93.27984619140625 9.300018310546875Q63.27984619140625 25.60003662109375 48.41986083984375 53.9200439453125Q33.55987548828125 82.24005126953125 33.55987548828125 117.6400146484375Q33.55987548828125 161 53.579864501953125 188.51998901367188Q73.599853515625 216.03997802734375 105.11984252929688 232.87997436523438Q136.63983154296875 249.719970703125 171.65982055664062 261.0599670410156Q206.6798095703125 272.39996337890625 238.19979858398438 282.89996337890625Q269.71978759765625 293.39996337890625 289.7397766113281 307.5599670410156Q309.759765625 321.719970703125 309.759765625 344.719970703125V415.36016845703125Q309.759765625 449.03997802734375 299.49981689453125 470.0799560546875Q289.2398681640625 491.11993408203125 270.159912109375 500.6999816894531Q251.0799560546875 510.280029296875 223.7999267578125 510.280029296875Q201.67999267578125 510.280029296875 177.66009521484375 504.0800476074219Q153.64019775390625 497.88006591796875 138.56024169921875 480.36016845703125Q162.68035888671875 473.4801025390625 177.32037353515625 455.0800476074219Q191.96038818359375 436.67999267578125 191.96038818359375 410.719970703125Q191.96038818359375 380.91986083984375 172.12030029296875 363.6997985839844Q152.28021240234375 346.479736328125 123.1201171875 346.479736328125Q90.60003662109375 346.479736328125 74.37997436523438 367.0597839355469Q58.159912109375 387.63983154296875 58.159912109375 415.11993408203125Q58.159912109375 442.719970703125 71.95993041992188 460.4800109863281Q85.75994873046875 478.24005126953125 109.280029296875 493.52008056640625Q134.52008056640625 509.840087890625 172.78012084960938 520.06005859375Q211.0401611328125 530.280029296875 257.0401611328125 530.280029296875Q300.6002197265625 530.280029296875 333.76031494140625 520.780029296875Q366.92041015625 511.280029296875 389.44049072265625 489.11993408203125Q413.8404541015625 465.75994873046875 421.200439453125 431.7399597167969Q428.5604248046875 397.719970703125 428.5604248046875 348.43994140625V73.6400146484375Q428.5604248046875 48.6400146484375 434.7803955078125 38.280029296875Q441.0003662109375 27.9200439453125 454.76031494140625 27.9200439453125Q464.80029296875 27.9200439453125 474.0002746582031 32.9200439453125Q483.20025634765625 37.9200439453125 494.960205078125 47L505.64019775390625 30Q484.3201904296875 13.03997802734375 461.0000915527344 3.019989013671875Q437.67999267578125 -7 404.39996337890625 -7Q370.91986083984375 -7 350.4798278808594 3.160003662109375Q330.039794921875 13.32000732421875 320.539794921875 32.17999267578125Q311.039794921875 51.03997802734375 310.71978759765625 77.83990478515625Q285.63983154296875 36.67999267578125 250.05987548828125 14.839996337890625Q214.47991943359375 -7 166.19989013671875 -7ZM221.080322265625 45.80029296875Q247.0401611328125 45.80029296875 269.1400146484375 59.840179443359375Q291.2398681640625 73.88006591796875 309.759765625 102.91986083984375V303.719970703125Q299.35980224609375 288 280.0398864746094 276.17999267578125Q260.719970703125 264.3599853515625 238.52008056640625 252.37997436523438Q216.3201904296875 240.39996337890625 196.30029296875 225.05996704101562Q176.2803955078125 209.719970703125 163.32046508789062 186.48001098632812Q150.36053466796875 163.24005126953125 150.36053466796875 127.72015380859375Q150.36053466796875 88.36016845703125 169.6204833984375 67.08023071289062Q188.88043212890625 45.80029296875 221.080322265625 45.80029296875Z" transform="translate(1139.03,0) scale(0.11441,-0.11441)"/></g><rect x="470.0" y="209.0" width="1197.3" height="4.0" fill="#a9781f"/><g transform="translate(470.0,312.0)" fill="#a9781f"><path d="M115.84073763621123 0V700H375.1997764738754Q508.3595976529757 700 584.479463537301 636.9001117630623Q660.5993294216262 573.8002235261246 660.5993294216262 461.16037999441187Q660.5993294216262 387.0804694048617 626.2993853031574 333.76054763900527Q591.9994411846884 280.4406258731489 528.1595417714445 251.90067057837385Q464.3196423582006 223.36071528359878 375.1997764738754 223.36071528359878H153.87957530036323L184.71863649063985 255.23973176865047V0ZM595.1614976250349 0 414.7613858619726 254H490.71919530595136L671.6392847164012 0ZM184.71863649063985 249.96004470522493 153.87957530036323 282.9189717798268H374.07991058955014Q480.4406258731489 282.9189717798268 535.8210393964795 329.8393405979324Q591.20145291981 376.759709416038 591.20145291981 461.16037999441187Q591.20145291981 546.5610505727857 535.8210393964795 592.9814193908912Q480.4406258731489 639.4017882089969 374.07991058955014 639.4017882089969H153.87957530036323L184.71863649063985 672.8806929309864Z" transform="translate(0.00,0) scale(0.09286,-0.09286)"/><path d="M628.6814752724225 0V700H697.559374126851V0ZM115.84073763621123 0V700H184.71863649063985V0ZM177.11874825370217 325.20089410449845V385.79910589550155H635.7613858619726V325.20089410449845Z" transform="translate(100.76,0) scale(0.09286,-0.09286)"/><path d="M115.84073763621123 0V700H593.3595976529757V639.4017882089969H184.71863649063985V60.59821179100307H607.8396200055881V0ZM177.63872590108969 325.720871751886V385.279128248114H549.3995529477507V325.720871751886Z" transform="translate(209.87,0) scale(0.09286,-0.09286)"/><path d="M395.9600447052249 -6.119865884325231Q262.6404023470243 -6.119865884325231 186.24056999161775 71.0Q109.84073763621123 148.11986588432524 109.84073763621123 298.7197541212629V700H178.71863649063985V301.2796870634255Q178.71863649063985 175.83906119027662 235.63900530874548 115.93867001955854Q292.5593741268511 56.038278848840456 396.4800223526125 56.038278848840456Q500.4006705783738 56.038278848840456 557.3210393964795 115.93867001955854Q614.2414082145851 175.83906119027662 614.2414082145851 301.2796870634255V700H682.0793517742386V298.7197541212629Q682.0793517742386 148.11986588432524 605.6795194188321 71.0Q529.2796870634255 -6.119865884325231 395.9600447052249 -6.119865884325231Z" transform="translate(305.61,0) scale(0.09286,-0.09286)"/><path d="M115.84073763621123 0V700H172.8790164850517L493.9195305951383 150.75859178541492H463.60044705224925L782.0810282201733 700H839.1193070690136L839.6392847164012 0H772.8412964515228L772.3213188041352 595.603241128807H789.1609388097233L493.87957530036323 90.16037999441184H461.0804694048617L163.75915060072646 595.603241128807H182.63872590108969V0Z" transform="translate(412.77,0) scale(0.09286,-0.09286)"/><path d="M2.7602682313495395 0 323.0804694048617 700H391.4383906119028L712.2785694328024 0H638.8407376362112L342.63984353171276 659.5610505727857H371.3590388376642L75.15814473316568 0ZM126.91953059513831 188.64096116233586 147.83906119027662 245.59932942162615H557.3601564682872L578.7996647108131 188.64096116233586Z" transform="translate(535.07,0) scale(0.09286,-0.09286)"/><path d="M251.52053646269908 0V639.4017882089969H4V700H567.9189717798267V639.4017882089969H320.3984353171277V0Z" transform="translate(635.08,0) scale(0.09286,-0.09286)"/><path d="M419.6730508865066 -6.119865884325231Q340.70625824130036 -6.119865884325231 273.53320735479383 20.64012293936854Q206.36015646828724 47.400111763062306 156.82020117351215 95.66010058675607Q107.28024587873708 143.92008941044983 79.76026823134954 208.57261037972046Q52.240290583962 273.2251313489911 52.240290583962 350Q52.240290583962 426.7748686510089 79.76026823134954 491.42738962027954Q107.28024587873708 556.0799105895502 156.88633868129392 604.4149297449139Q206.49243148385074 652.7499489002777 273.48622691823164 679.4349073923015Q340.4800223526125 706.1198658843252 419.5599329421626 706.1198658843252Q498.63984353171276 706.1198658843252 565.4842594226556 679.5273866383134Q632.3286753135983 652.9349073923015 681.8241588358994 604.7673978146196Q731.3196423582007 556.5998882369377 758.8396200055881 491.76792400111765Q786.3595976529757 426.9359597652976 786.3595976529757 349.94800223526124Q786.3595976529757 272.9600447052249 758.8396200055881 208.1800782341436Q731.3196423582007 143.4001117630623 681.8241588358994 95.23260218538041Q632.3286753135983 47.065092607698524 565.4842594226556 20.472613361686648Q498.63984353171276 -6.119865884325231 419.6730508865066 -6.119865884325231ZM419.5599329421626 56.038278848840456Q483.240290583962 56.038278848840456 537.4791427359183 77.99585644391337Q591.7179948878747 99.95343403898627 631.9597239038424 139.916225262019Q672.20145291981 179.8790164850517 694.5815870354847 233.25630380574316Q716.9617211511595 286.6335911264346 716.9617211511595 350.156974384117Q716.9617211511595 413.6803576417994 694.6400114902474 466.8560160094188Q672.3183018293353 520.0316743770383 632.0516883233761 560.0232852154959Q591.785074817417 600.0148960539534 537.5126827006895 621.9883086025565Q483.240290583962 643.9617211511595 419.5599329421626 643.9617211511595Q355.87957530036323 643.9617211511595 301.48643931045956 621.9714439870233Q247.09330332055592 599.9811668228872 206.73710565062743 559.9588623841594Q166.3809079806989 519.9365579454316 144.00953753323853 466.720087208222Q121.63816708577815 413.5036164710125 121.63816708577815 350.1716182383003Q121.63816708577815 286.83962000558813 143.98557533553344 233.4623326848967Q166.3329835852887 180.08504536420526 206.64595532994525 139.94179622219764Q246.95892707460183 99.79854708018999 301.41925118748253 77.91841296451523Q355.87957530036323 56.038278848840456 419.5599329421626 56.038278848840456Z" transform="translate(721.82,0) scale(0.09286,-0.09286)"/><path d="M115.84073763621123 0V700H184.71863649063985V60.59821179100307H578.8396200055881V0Z" transform="translate(833.34,0) scale(0.09286,-0.09286)"/><path d="M419.6730508865066 -6.119865884325231Q340.70625824130036 -6.119865884325231 273.53320735479383 20.64012293936854Q206.36015646828724 47.400111763062306 156.82020117351215 95.66010058675607Q107.28024587873708 143.92008941044983 79.76026823134954 208.57261037972046Q52.240290583962 273.2251313489911 52.240290583962 350Q52.240290583962 426.7748686510089 79.76026823134954 491.42738962027954Q107.28024587873708 556.0799105895502 156.88633868129392 604.4149297449139Q206.49243148385074 652.7499489002777 273.48622691823164 679.4349073923015Q340.4800223526125 706.1198658843252 419.5599329421626 706.1198658843252Q498.63984353171276 706.1198658843252 565.4842594226556 679.5273866383134Q632.3286753135983 652.9349073923015 681.8241588358994 604.7673978146196Q731.3196423582007 556.5998882369377 758.8396200055881 491.76792400111765Q786.3595976529757 426.9359597652976 786.3595976529757 349.94800223526124Q786.3595976529757 272.9600447052249 758.8396200055881 208.1800782341436Q731.3196423582007 143.4001117630623 681.8241588358994 95.23260218538041Q632.3286753135983 47.065092607698524 565.4842594226556 20.472613361686648Q498.63984353171276 -6.119865884325231 419.6730508865066 -6.119865884325231ZM419.5599329421626 56.038278848840456Q483.240290583962 56.038278848840456 537.4791427359183 77.99585644391337Q591.7179948878747 99.95343403898627 631.9597239038424 139.916225262019Q672.20145291981 179.8790164850517 694.5815870354847 233.25630380574316Q716.9617211511595 286.6335911264346 716.9617211511595 350.156974384117Q716.9617211511595 413.6803576417994 694.6400114902474 466.8560160094188Q672.3183018293353 520.0316743770383 632.0516883233761 560.0232852154959Q591.785074817417 600.0148960539534 537.5126827006895 621.9883086025565Q483.240290583962 643.9617211511595 419.5599329421626 643.9617211511595Q355.87957530036323 643.9617211511595 301.48643931045956 621.9714439870233Q247.09330332055592 599.9811668228872 206.73710565062743 559.9588623841594Q166.3809079806989 519.9365579454316 144.00953753323853 466.720087208222Q121.63816708577815 413.5036164710125 121.63816708577815 350.1716182383003Q121.63816708577815 286.83962000558813 143.98557533553344 233.4623326848967Q166.3329835852887 180.08504536420526 206.64595532994525 139.94179622219764Q246.95892707460183 99.79854708018999 301.41925118748253 77.91841296451523Q355.87957530036323 56.038278848840456 419.5599329421626 56.038278848840456Z" transform="translate(921.56,0) scale(0.09286,-0.09286)"/><path d="M421 -6.119865884325231Q341.4400670578374 -6.119865884325231 274.14012293936855 20.38013411567477Q206.8401788208997 46.88013411567477 157.06021234981839 95.14012293936854Q107.28024587873708 143.4001117630623 79.76026823134954 208.1800782341436Q52.240290583962 272.9600447052249 52.240290583962 350Q52.240290583962 427.0399552947751 79.76026823134954 491.8199217658564Q107.28024587873708 556.5998882369377 157.32020117351215 604.8598770606314Q207.36015646828724 653.1198658843252 274.6601005867561 679.6198658843252Q341.9600447052249 706.1198658843252 422.0399552947751 706.1198658843252Q500.83962000558813 706.1198658843252 567.2394523609946 681.0Q633.6392847164012 655.8801341156748 680.7191953059514 605.6803576417993L637.520536462699 561.5216540933221Q592.6404023470243 605.441743503772 539.5602123498184 624.7017323274658Q486.4800223526125 643.9617211511595 424.63984353171276 643.9617211511595Q359.43950824252585 643.9617211511595 303.9592064822576 621.8415758591785Q248.47890472198938 599.7214305671976 207.43867001955851 559.9411846884605Q166.39843531712768 520.1609388097233 144.0183012014529 466.68063704945513Q121.63816708577815 413.2003352891869 121.63816708577815 350Q121.63816708577815 287.3196423582006 144.0183012014529 233.8393405979324Q166.39843531712768 180.35903883766414 207.43867001955851 140.3188041352333Q248.47890472198938 100.27856943280246 303.69921765856384 78.15842414082145Q358.9195305951383 56.038278848840456 424.11986588432524 56.038278848840456Q483.88013411567476 56.038278848840456 537.9603241128807 74.47834590667784Q592.0405141100866 92.91841296451523 637.0005588153116 135.79854708019L676.559374126851 83.36015646828723Q627.3995529477507 38.88013411567477 560.4797429449567 16.38013411567477Q493.5599329421626 -6.119865884325231 421 -6.119865884325231ZM676.559374126851 83.36015646828723 610.2414082145851 92.11986588432524V349.759709416038H676.559374126851Z" transform="translate(1033.09,0) scale(0.09286,-0.09286)"/><path d="M282.00055881531154 0V259.03939647946356L297.92008941044986 215.44062587314892L1.680357641799386 700H76.15814473316568L338.11874825370217 271.71919530595136H298.92008941044986L561.4006705783738 700H631.1986588432524L334.95892707460183 215.44062587314892L350.87845766974016 259.03939647946356V0Z" transform="translate(1138.49,0) scale(0.09286,-0.09286)"/></g></svg>