<svg xmlns="http://www.w3.org/2000/svg" viewBox="178 308 1441 392" role="img" aria-label="Dr. Dharini Mahendira Rheumatology">
<g transform="translate(0.000000,1008.000000) scale(0.100000,-0.100000)"
fill="#f7f3ec" stroke="none">
<path d="M3490 6926 c-371 -57 -694 -202 -978 -440 -199 -167 -389 -421 -496
-663 -225 -508 -224 -1060 3 -1573 23 -52 47 -102 54 -111 11 -15 153 -16
1690 -11 l1678 5 38 76 c330 658 225 1487 -263 2069 -212 252 -538 469 -858
571 -202 64 -321 82 -563 86 -148 3 -248 0 -305 -9z m-240 -1185 c205 -61 327
-182 376 -373 25 -96 15 -278 -20 -383 -42 -123 -84 -191 -172 -285 -88 -91
-151 -135 -263 -180 -129 -53 -187 -59 -547 -62 -320 -2 -329 -2 -329 17 0 15
9 21 35 26 54 9 96 35 113 71 20 44 237 1018 237 1067 0 46 -29 76 -82 86 -29
6 -38 12 -38 27 0 20 5 20 308 15 279 -4 314 -6 382 -26z m884 7 c3 -13 37
-221 76 -463 39 -242 74 -448 78 -458 6 -14 27 15 93 130 47 81 173 298 279
481 l193 332 182 0 c100 0 184 -3 188 -6 14 -14 -7 -33 -44 -39 -47 -8 -91
-42 -112 -88 -17 -35 -224 -956 -234 -1039 -5 -41 -2 -50 20 -72 24 -24 49
-31 85 -27 9 2 12 -6 10 -21 -3 -23 -3 -23 -263 -21 -143 2 -261 3 -263 3 -1
0 2 9 8 20 7 12 21 20 38 20 40 0 89 34 110 77 11 21 65 245 121 498 56 253
105 469 108 480 5 21 -148 -237 -347 -585 -165 -288 -279 -481 -298 -502 -8
-10 -21 -18 -27 -18 -15 0 -23 38 -120 625 -42 248 -76 454 -78 458 -1 4 -22
-84 -46 -195 -24 -112 -67 -310 -97 -440 -30 -131 -54 -251 -54 -268 0 -70 47
-130 101 -130 32 0 38 -6 32 -31 -5 -19 -14 -19 -196 -17 -213 3 -235 11 -145
51 58 26 109 77 134 135 28 64 224 941 224 1000 0 44 -37 80 -89 88 -38 6 -51
21 -34 37 3 4 86 7 184 7 177 0 179 0 183 -22z M2935 5679 c-4 -19 -63 -286
-131 -594 -68 -308 -124 -564 -124 -569 0 -11 190 0 256 14 136 31 274 147
351 295 115 223 141 514 61 687 -57 125 -156 186 -319 195 -87 6 -87 6 -94
-28z M8725 6024 c-27 -7 -60 -14 -72 -14 -13 0 -23 -4 -23 -10 0 -5 4 -10 10
-10 5 0 18 -10 30 -22 19 -21 20 -33 20 -351 0 -329 0 -329 -28 -355 -29 -27
-29 -27 80 -27 59 0 108 2 108 5 0 3 -10 10 -22 15 -30 13 -36 57 -37 242 -1
142 -1 142 36 172 66 54 130 53 164 -2 17 -28 19 -52 19 -205 0 -173 -6 -212
-35 -212 -8 0 -15 -3 -15 -7 0 -5 47 -8 105 -8 58 0 105 3 105 8 0 4 -4 7 -9
7 -5 0 -17 7 -25 16 -13 13 -16 44 -16 180 0 91 -5 184 -11 208 -33 131 -173
155 -282 48 -38 -37 -38 -37 -37 148 1 101 -2 185 -7 186 -4 1 -30 -4 -58 -12z
M12898 6021 c-43 -8 -78 -19 -78 -23 0 -5 5 -8 10 -8 6 0 19 -9 30 -20 19 -19
20 -33 20 -351 0 -331 0 -331 -28 -357 -29 -27 -29 -27 80 -27 59 0 108 3 108
8 0 4 -4 7 -9 7 -5 0 -17 7 -25 16 -13 13 -16 45 -16 199 0 184 0 184 35 210
51 39 104 44 141 12 29 -25 29 -25 32 -203 4 -197 1 -220 -28 -229 -43 -14
-16 -20 85 -20 101 0 128 6 85 20 -27 9 -29 23 -32 230 -3 167 -5 183 -26 216
-55 89 -165 91 -256 5 -21 -20 -39 -36 -40 -36 -1 0 0 83 2 185 2 102 0 184
-5 184 -4 -1 -43 -9 -85 -18z M14858 6022 c-38 -9 -68 -20 -68 -24 0 -4 6 -8
13 -8 34 0 46 -33 49 -143 2 -67 -1 -107 -7 -107 -5 1 -21 7 -35 15 -35 20
-127 18 -175 -4 -99 -45 -151 -151 -143 -295 7 -118 46 -185 130 -221 74 -30
140 -14 211 53 27 26 27 26 27 -21 0 -26 3 -47 6 -47 3 0 40 10 81 22 63 18
72 24 56 31 -40 18 -43 44 -43 412 0 332 -1 355 -17 354 -10 -1 -48 -9 -85
-17z m-68 -287 c56 -29 60 -44 60 -225 0 -160 -1 -167 -22 -187 -35 -31 -63
-43 -104 -43 -75 0 -124 88 -124 223 0 171 91 283 190 232z M6369 5977 c49
-28 50 -41 50 -367 1 -325 -3 -352 -47 -358 -12 -2 -22 -6 -22 -10 0 -4 86 -6
191 -4 213 4 261 14 342 76 101 77 142 173 135 319 -7 154 -70 257 -196 319
-67 33 -67 33 -272 36 -178 2 -202 1 -181 -11z m343 -23 c123 -41 200 -200
185 -379 -18 -206 -128 -324 -304 -325 -32 0 -45 5 -53 19 -6 13 -10 145 -10
360 l0 341 68 0 c38 0 89 -7 114 -16z M7943 5957 c37 -34 37 -34 37 -338 0
-322 -3 -344 -48 -364 -12 -5 -22 -12 -22 -15 0 -6 308 -3 372 4 66 7 128 37
183 87 120 111 149 306 71 471 -30 63 -84 116 -154 150 -67 33 -67 33 -271 37
-205 3 -205 3 -168 -32z m342 -11 c92 -42 147 -129 165 -259 12 -81 6 -146
-20 -237 -42 -142 -145 -204 -317 -192 -23 2 -23 2 -23 357 l0 355 73 0 c54 0
84 -6 122 -24z M11485 5973 c65 -34 65 -32 64 -313 0 -140 -4 -275 -8 -299
-10 -49 -37 -91 -69 -106 -12 -5 -22 -12 -22 -15 0 -4 172 -5 205 0 6 0 -4 7
-22 15 -63 27 -68 49 -71 355 -2 173 0 271 6 265 8 -9 161 -376 238 -574 15
-39 30 -71 33 -71 3 0 16 28 28 63 40 115 220 587 226 594 9 8 9 -580 1 -602
-4 -10 -21 -23 -38 -31 -29 -12 -22 -13 79 -14 61 0 120 -3 133 -6 12 -4 22
-2 22 4 0 5 -10 12 -23 16 -13 3 -29 17 -35 31 -15 34 -17 627 -2 655 6 11 23
26 38 34 25 14 22 15 -66 16 -87 0 -93 -1 -103 -23 -5 -12 -54 -139 -108 -282
-53 -142 -103 -261 -109 -263 -7 -2 -12 2 -12 8 0 6 -50 135 -111 286 l-111
274 -97 0 c-93 -1 -95 -1 -66 -17z M10170 5960 c-43 -43 -13 -110 49 -110 45
0 64 18 64 60 0 62 -70 93 -113 50z M11001 5954 c-25 -32 -26 -52 -5 -82 11
-16 25 -22 54 -22 40 0 70 26 70 61 0 30 -39 69 -70 69 -19 0 -36 -9 -49 -26z
M15110 5960 c-43 -43 -10 -110 54 -110 25 0 39 7 50 22 21 30 20 50 -5 82 -25
32 -70 35 -99 6z M7155 5752 c-38 -8 -72 -17 -74 -18 -2 -2 10 -14 25 -28 28
-24 29 -26 32 -143 2 -65 -1 -158 -5 -208 -7 -82 -10 -91 -33 -102 -22 -11 -9
-13 90 -12 77 0 108 3 93 9 -37 15 -43 42 -43 197 0 133 2 152 21 183 12 19
27 38 33 42 18 12 60 8 80 -7 25 -19 41 -19 60 1 22 21 20 67 -2 87 -47 42
-129 1 -170 -86 -21 -42 -21 -42 -22 31 0 39 -3 71 -7 71 -5 -1 -39 -8 -78
-17z M9346 5756 c-80 -30 -116 -75 -103 -128 13 -50 87 -41 87 10 0 42 19 91
40 102 10 6 31 10 45 10 62 0 85 -40 85 -150 0 -67 0 -67 -72 -85 -164 -39
-242 -119 -204 -208 39 -95 170 -114 243 -37 15 17 30 30 34 30 3 0 13 -15 22
-34 27 -58 114 -58 152 0 16 24 15 24 -10 18 -50 -13 -55 3 -55 185 0 188 -11
229 -71 272 -41 29 -135 36 -193 15z m154 -341 c0 -95 0 -95 -32 -115 -69 -42
-140 -8 -142 66 -1 55 25 91 87 120 86 40 87 39 87 -71z M9785 5751 c-38 -8
-72 -16 -74 -17 -2 -2 8 -13 22 -25 27 -20 27 -20 27 -229 0 -208 0 -208 -25
-227 -25 -18 -24 -18 85 -18 60 0 110 3 110 8 0 4 -6 7 -14 7 -8 0 -22 10 -30
22 -13 18 -16 53 -16 171 0 129 3 153 20 188 29 56 59 68 103 40 37 -23 62
-20 77 10 15 27 12 47 -10 69 -45 45 -122 12 -164 -71 -26 -53 -26 -53 -26 13
0 37 -3 68 -7 71 -5 2 -39 -3 -78 -12z M10215 5754 c-27 -7 -63 -16 -80 -19
-27 -6 -28 -7 -10 -17 43 -22 45 -34 45 -231 0 -196 -5 -222 -43 -237 -15 -5
15 -9 91 -12 105 -3 137 3 93 17 -32 10 -38 51 -40 285 -1 123 -3 225 -4 225
-1 1 -24 -4 -52 -11z M10450 5748 c-41 -9 -76 -17 -77 -17 -1 -1 12 -14 28
-31 30 -30 30 -30 27 -226 -3 -190 -4 -196 -26 -214 -22 -18 -21 -19 83 -22
98 -3 131 3 85 15 -32 8 -40 50 -40 221 0 162 0 162 28 188 53 50 91 59 141
33 43 -22 51 -60 51 -242 0 -164 -7 -203 -35 -203 -8 0 -15 -3 -15 -7 0 -5 47
-8 105 -8 101 0 128 6 85 20 -27 9 -29 23 -32 225 -3 154 -5 180 -24 214 -23
45 -73 76 -123 76 -45 0 -114 -34 -145 -71 -14 -16 -27 -29 -30 -29 -3 0 -6
21 -8 48 -3 47 -3 47 -78 30z M11050 5754 c-25 -7 -57 -16 -72 -19 -27 -5 -27
-5 -2 -30 24 -24 24 -24 22 -232 -3 -204 -3 -208 -26 -219 -12 -6 -24 -13 -26
-15 -3 -2 46 -4 108 -4 113 0 113 0 84 27 -28 26 -28 26 -28 267 0 133 -3 241
-7 240 -5 0 -28 -7 -53 -15z M12466 5760 c-95 -30 -148 -118 -92 -155 18 -12
30 -13 50 -6 21 9 26 17 26 46 0 42 22 90 45 99 35 13 72 6 96 -20 20 -22 24
-38 28 -105 2 -60 0 -80 -10 -83 -8 -2 -54 -16 -102 -31 -146 -43 -203 -115
-161 -202 34 -68 109 -99 177 -74 14 5 41 24 61 42 20 17 38 30 39 28 2 -2 9
-16 16 -31 16 -31 60 -53 89 -43 25 7 72 44 72 55 0 4 -9 6 -20 3 -44 -11 -50
10 -50 166 -1 212 -16 266 -86 300 -35 18 -137 24 -178 11z m131 -447 c-13
-13 -39 -26 -60 -30 -31 -5 -40 -1 -67 25 -64 64 -22 154 90 192 55 19 55 19
58 -73 3 -84 1 -93 -21 -114z M13555 5751 c-89 -42 -146 -137 -147 -249 -1
-98 18 -148 77 -209 71 -73 156 -92 240 -54 59 26 125 108 125 153 0 7 -16 -7
-36 -30 -107 -126 -284 -43 -296 138 -3 45 -3 45 165 48 167 2 167 2 167 35 0
40 -30 105 -61 134 -58 53 -160 68 -234 34z m150 -25 c25 -25 45 -82 45 -128
0 -28 0 -28 -115 -28 -115 0 -115 0 -115 30 0 110 119 192 185 126z M13980
5748 c-41 -9 -76 -17 -77 -17 -1 -1 12 -14 28 -30 29 -29 29 -29 29 -225 0
-195 0 -195 -25 -214 -14 -11 -25 -21 -25 -23 0 -2 47 -4 105 -4 58 0 105 2
105 5 0 3 -10 10 -22 15 -30 13 -36 57 -37 239 -1 139 -1 139 34 172 42 39 92
52 131 32 50 -23 54 -46 51 -248 -2 -181 -2 -185 -24 -195 -13 -5 -23 -12 -23
-15 0 -3 49 -5 109 -5 109 0 109 0 80 25 -28 25 -28 25 -31 215 -3 177 -5 192
-26 226 -25 42 -74 69 -123 69 -43 0 -112 -34 -143 -71 -14 -16 -27 -29 -30
-29 -3 0 -6 21 -8 48 -3 47 -3 47 -78 30z M15127 5747 c-79 -20 -79 -20 -48
-44 31 -24 31 -24 31 -220 0 -195 0 -195 -28 -221 -29 -27 -29 -27 80 -27 59
0 108 2 108 4 0 2 -11 12 -25 23 -25 19 -25 19 -25 264 0 134 -3 243 -7 243
-5 -1 -43 -11 -86 -22z M15395 5751 c-38 -8 -72 -16 -74 -17 -2 -2 8 -13 22
-25 27 -20 27 -20 27 -220 0 -199 -6 -239 -35 -239 -7 0 -16 -3 -18 -7 -3 -5
46 -8 109 -8 63 0 114 3 114 8 0 4 -6 7 -13 7 -8 0 -21 8 -30 18 -14 16 -17
44 -17 176 0 161 4 180 43 224 25 27 46 28 89 2 31 -18 36 -18 56 -4 28 19 28
58 2 84 -43 43 -125 11 -162 -65 -26 -53 -39 -58 -31 -12 2 17 1 46 -4 62 -8
30 -8 30 -78 16z M15845 5758 c-39 -14 -92 -54 -106 -79 -24 -45 17 -97 66
-85 18 5 24 15 29 58 13 93 82 130 137 72 21 -22 24 -37 27 -108 4 -82 4 -82
-55 -95 -59 -13 -145 -49 -173 -73 -82 -69 -60 -189 40 -219 52 -16 101 -4
154 36 44 33 44 33 56 6 23 -56 90 -62 143 -13 32 30 36 48 7 30 -15 -10 -25
-10 -38 -2 -15 10 -18 34 -22 190 -6 196 -13 223 -73 268 -32 24 -143 32 -192
14z m155 -337 c0 -99 0 -99 -34 -120 -42 -27 -76 -27 -110 0 -22 17 -26 28
-26 69 0 41 5 53 30 79 23 22 102 63 138 70 1 1 2 -44 2 -98z M7472 5353 c-32
-28 -33 -82 -2 -113 29 -29 74 -26 99 6 28 35 26 69 -4 99 -28 29 -65 32 -93
8z M3757 4060 l-1638 -5 65 -95 c251 -369 643 -645 1080 -760 147 -38 210 -49
363 -60 629 -44 1252 231 1638 725 62 79 140 195 133 198 -1 1 -740 0 -1641
-3z"/>
</g>
<g transform="translate(0.000000,1008.000000) scale(0.100000,-0.100000)"
fill="#432a49" stroke="none">
<path d="M1780 5040 l0 -1960 2715 0 2715 0 0 880 0 880 -440 0 c-440 0 -440
0 -440 40 0 40 0 40 440 40 l440 0 0 155 c0 155 0 155 -70 155 -40 0 -70 4
-70 10 0 6 5 10 10 10 6 0 19 9 30 20 19 19 20 33 20 215 0 182 -1 196 -20
215 -11 11 -24 20 -30 20 -5 0 -10 4 -10 9 0 4 30 15 68 23 l67 14 3 617 2
617 -2715 0 -2715 0 0 -1960z m2333 1876 c386 -73 711 -242 990 -515 337 -329
525 -737 569 -1234 9 -98 9 -162 0 -268 -22 -255 -67 -425 -179 -676 -46 -103
-46 -103 -87 -104 -26 -1 -32 -3 -16 -6 48 -8 52 -11 34 -30 -9 -10 -41 -56
-71 -103 -280 -429 -747 -731 -1273 -825 -126 -22 -388 -30 -518 -16 -349 38
-680 168 -960 377 -101 75 -268 239 -347 339 -85 109 -157 224 -151 241 3 8
-1 14 -9 14 -18 0 -80 121 -130 255 -262 698 -103 1465 415 1999 311 321 696
514 1140 572 163 21 422 12 593 -20z m2600 -926 c129 -19 224 -89 280 -208 29
-61 32 -75 32 -167 -1 -80 -5 -111 -23 -156 -33 -83 -90 -142 -180 -186 -76
-38 -76 -38 -280 -41 -146 -3 -202 -1 -198 7 4 6 12 11 18 11 6 0 20 7 30 17
17 15 18 39 18 335 0 206 -4 326 -11 339 -5 11 -21 24 -35 29 -53 21 -10 30
134 29 81 0 178 -4 215 -9z m44 -1453 c64 -17 112 -49 144 -95 36 -53 39 -161
7 -222 -21 -39 -66 -81 -100 -92 -5 -2 22 -50 61 -106 39 -57 71 -105 71 -108
0 -2 -29 -4 -64 -4 -63 0 -63 0 -126 95 -63 95 -63 95 -146 95 -84 0 -84 0
-84 -95 0 -95 0 -95 -60 -95 l-60 0 0 320 0 320 153 0 c95 0 172 -5 204 -13z
M2562 5748 c3 -7 22 -16 43 -19 45 -7 85 -47 85 -84 0 -25 -183 -861 -220
-1004 -23 -89 -53 -125 -121 -142 -29 -8 -49 -18 -49 -27 0 -12 53 -13 343 -9
315 4 348 6 422 26 353 99 567 371 569 726 1 173 -49 302 -152 396 -62 57
-116 86 -217 120 -66 22 -88 23 -389 27 -260 3 -317 1 -314 -10z m586 -53
c107 -32 181 -105 225 -223 18 -49 22 -79 22 -202 0 -179 -22 -278 -95 -427
-41 -83 -64 -116 -123 -175 -118 -120 -216 -158 -405 -158 -94 0 -103 2 -98
18 3 9 62 276 131 592 70 316 129 581 131 589 3 11 21 12 85 7 44 -4 101 -14
127 -21z M3770 5745 c0 -9 9 -15 25 -15 54 0 105 -47 105 -96 0 -8 -29 -147
-65 -307 -157 -707 -155 -700 -210 -765 -28 -34 -92 -72 -120 -72 -8 0 -15 -7
-15 -15 0 -13 28 -15 190 -15 145 0 190 3 190 13 0 6 -21 19 -47 27 -60 19
-86 60 -85 133 0 29 25 160 55 292 31 132 75 329 98 438 40 184 59 238 59 167
0 -38 163 -1025 175 -1057 10 -28 32 -10 74 60 60 99 182 309 416 715 109 188
199 341 201 339 4 -4 -202 -929 -218 -977 -6 -19 -18 -45 -26 -58 -18 -28 -82
-62 -117 -62 -16 0 -25 -6 -25 -15 0 -13 36 -15 260 -15 224 0 260 2 260 15 0
9 -9 15 -25 15 -33 0 -81 25 -89 45 -15 39 0 124 103 591 74 335 117 506 131
529 26 42 78 75 119 75 21 0 31 5 31 15 0 13 -27 15 -184 15 l-183 0 -265
-457 c-146 -252 -271 -468 -277 -480 -6 -13 -15 -23 -20 -23 -4 0 -36 172 -70
383 -34 210 -69 426 -78 480 l-16 97 -179 0 c-152 0 -178 -2 -178 -15z M3042
4113 c59 -2 158 -2 220 0 62 1 14 3 -107 3 -121 0 -172 -2 -113 -3z M3463
4113 c42 -2 112 -2 155 0 42 1 7 3 -78 3 -85 0 -120 -2 -77 -3z M3888 4113
c50 -2 134 -2 185 0 50 1 9 3 -93 3 -102 0 -143 -2 -92 -3z M4353 4113 c48 -2
126 -2 175 0 48 1 8 3 -88 3 -96 0 -136 -2 -87 -3z M4938 4113 c78 -2 206 -2
285 0 78 1 14 3 -143 3 -157 0 -221 -2 -142 -3z M2552 4073 c247 -2 649 -2
895 0 247 1 45 2 -447 2 -492 0 -694 -1 -448 -2z M4052 4073 c48 -2 129 -2
180 0 51 1 12 3 -87 3 -99 0 -141 -2 -93 -3z M4408 4073 c39 -2 105 -2 145 0
39 1 7 3 -73 3 -80 0 -112 -2 -72 -3z M5048 4073 c50 -2 134 -2 185 0 50 1 9
3 -93 3 -102 0 -143 -2 -92 -3z M6540 5615 l0 -357 78 3 c66 3 86 9 128 34 54
34 107 104 126 168 8 24 13 93 13 162 0 103 -4 127 -23 169 -52 114 -118 159
-249 172 l-73 7 0 -358z M6520 4326 l0 -126 96 0 c106 0 151 14 179 57 21 32
21 104 1 136 -25 38 -63 50 -173 55 l-103 4 0 -126z"/>
</g>
<g transform="translate(0.000000,1008.000000) scale(0.100000,-0.100000)"
fill="#a9781f" stroke="none">
<path d="M6335 4880 c0 -43 0 -43 820 -37 451 4 2033 8 3515 9 1628 2 2331 5
1775 8 -829 5 -866 5 -375 9 738 4 1041 9 1048 15 3 3 -165 6 -374 7 -208 0
-503 2 -654 3 -830 9 -2127 17 -3835 22 -1920 6 -1920 6 -1920 -36z M13278
4903 c133 -2 351 -2 485 0 133 1 24 2 -243 2 -267 0 -376 -1 -242 -2z M15038
4893 c67 -2 177 -2 245 0 67 1 12 3 -123 3 -135 0 -190 -2 -122 -3z M15828
4873 c34 -2 90 -2 125 0 34 2 6 3 -63 3 -69 0 -97 -1 -62 -3z M14628 4863 c83
-2 221 -2 305 0 83 1 15 3 -153 3 -168 0 -236 -2 -152 -3z M6403 4533 c-3 -6
-2 -119 1 -250 3 -131 5 -269 5 -306 1 -68 1 -68 54 -65 52 3 52 3 52 96 0 92
0 92 87 92 88 0 88 0 150 -95 63 -95 63 -95 121 -95 31 0 57 4 57 9 0 5 -30
52 -66 106 -36 53 -64 97 -63 99 67 43 83 58 104 100 62 124 0 270 -129 305
-58 16 -367 20 -373 4z m344 -100 c39 -18 73 -65 73 -101 0 -40 -28 -91 -62
-112 -27 -17 -50 -20 -135 -20 l-103 0 0 125 0 125 96 0 c69 0 106 -5 131 -17z
M7212 4233 c3 -318 3 -318 56 -321 52 -3 52 -3 52 137 l0 141 165 0 165 0 0
-140 c0 -141 0 -141 58 -138 57 3 57 3 57 318 0 315 0 315 -55 315 -55 0 -55
0 -58 -127 l-3 -128 -164 0 -165 0 0 130 c0 130 0 130 -55 130 -55 0 -55 0
-53 -317z M8084 4541 c-2 -2 -4 -145 -4 -318 l0 -313 235 0 c235 0 235 0 235
50 0 50 0 50 -173 50 -96 0 -176 2 -178 4 -2 2 -3 43 -1 90 l3 86 150 0 c149
0 149 0 149 45 0 45 0 45 -148 45 -82 0 -151 2 -153 4 -2 2 -3 41 -1 85 l4 81
169 0 c169 0 169 0 169 49 0 48 0 48 -226 47 -124 0 -227 -3 -230 -5z M8830
4338 c0 -117 5 -229 10 -248 19 -70 64 -126 125 -155 47 -24 70 -28 139 -28
71 -1 91 3 139 27 63 30 107 84 126 151 6 23 11 128 11 250 0 211 0 211 -55
213 -55 2 -55 2 -55 -188 0 -220 -8 -264 -56 -311 -29 -28 -42 -33 -96 -37
-74 -6 -117 14 -151 67 -21 34 -22 49 -25 254 -3 217 -3 217 -58 217 -54 0
-54 0 -54 -212z M9698 4333 c-1 -120 -1 -264 0 -320 4 -103 4 -103 53 -103 49
0 49 0 49 205 0 113 3 205 8 205 7 -1 57 -83 160 -262 38 -67 48 -78 71 -78
24 0 37 17 131 183 l105 182 3 -217 c2 -218 2 -218 52 -218 50 0 50 0 50 310
0 171 0 313 0 318 0 4 -21 7 -47 7 -47 0 -47 0 -161 -195 -62 -107 -117 -201
-121 -209 -6 -9 -47 52 -135 198 -127 211 -127 211 -171 211 -43 0 -43 0 -47
-217z M10869 4463 c-22 -48 -65 -142 -94 -208 -29 -66 -76 -169 -104 -229 -28
-59 -51 -110 -51 -112 0 -2 26 -4 59 -4 58 0 58 0 91 75 33 75 33 75 194 75
162 0 162 0 192 -72 30 -73 30 -73 92 -76 34 -2 62 -2 62 0 0 2 -65 145 -143
318 -144 315 -144 315 -201 318 -56 3 -56 3 -97 -85z m111 -53 c0 -5 23 -62
50 -126 28 -64 50 -120 50 -125 0 -5 -52 -9 -115 -9 -63 0 -115 3 -115 8 0 21
113 271 121 266 5 -3 9 -9 9 -14z M11440 4499 c0 -49 0 -49 105 -49 l105 0 0
-270 c0 -270 0 -270 54 -270 54 0 54 0 60 173 4 94 5 215 4 267 l-3 95 108 3
c108 3 108 3 105 50 -3 47 -3 47 -270 48 -268 1 -268 1 -268 -47z M12410 4541
c-90 -29 -168 -95 -204 -171 -17 -36 -21 -64 -21 -140 0 -84 3 -101 27 -146
69 -131 208 -199 357 -175 85 14 143 42 195 96 64 66 89 137 84 240 -5 96 -28
151 -89 213 -66 66 -117 86 -229 89 -52 1 -106 -1 -120 -6z m203 -109 c20 -8
52 -32 71 -53 126 -148 27 -371 -165 -371 -170 0 -276 165 -205 318 52 112
174 156 299 106z M13140 4230 l0 -320 223 2 c222 3 222 3 225 51 3 47 3 47
-167 47 l-171 0 0 270 c0 270 0 270 -55 270 -55 0 -55 0 -55 -320z M14014
4536 c-131 -42 -215 -159 -216 -300 0 -135 64 -242 176 -295 182 -85 386 -20
465 148 36 77 37 201 2 278 -26 59 -87 120 -153 154 -53 28 -208 37 -274 15z
m247 -121 c122 -86 122 -284 1 -369 -54 -38 -149 -48 -217 -21 -134 51 -178
234 -83 349 47 57 98 77 185 74 61 -3 78 -8 114 -33z M14933 4536 c-102 -32
-173 -104 -205 -209 -26 -89 -20 -157 22 -243 50 -102 138 -161 265 -178 65
-9 183 15 241 49 44 26 44 26 44 153 0 127 0 127 -53 127 -52 -1 -52 -1 -55
-99 -3 -97 -3 -97 -38 -112 -47 -20 -141 -20 -189 0 -179 75 -181 336 -3 410
21 9 66 16 101 16 54 0 71 -5 119 -34 56 -34 56 -34 93 4 37 38 37 38 1 65
-59 45 -127 65 -219 64 -45 0 -101 -6 -124 -13z M15540 4541 c0 -9 62 -112
208 -347 31 -50 32 -54 32 -168 0 -117 0 -117 57 -114 57 3 57 3 56 112 -1
109 -1 109 119 305 66 108 123 202 126 209 3 10 -9 12 -53 10 -57 -3 -57 -3
-146 -148 -49 -80 -93 -146 -97 -147 -4 -1 -48 64 -98 145 -91 147 -91 147
-147 150 -34 2 -57 -1 -57 -7z"/>
</g>
</svg>
