<svg xmlns="http://www.w3.org/2000/svg" viewBox="178 308 1440 391" role="img" aria-label="Dr. Dharini Mahendira Rheumatology">
<g transform="translate(0.000000,1008.000000) scale(0.100000,-0.100000)"
fill="#432a49" stroke="none">
<path d="M3530 6933 c-180 -23 -425 -94 -597 -173 -373 -173 -711 -510 -898
-895 -104 -217 -164 -441 -186 -698 -25 -301 43 -657 179 -942 l48 -100 1682
0 1681 0 47 99 c245 522 246 1120 0 1631 -98 205 -190 337 -346 499 -278 289
-600 466 -1003 552 -108 23 -148 27 -347 29 -124 2 -241 1 -260 -2z m-289
-1191 c211 -57 336 -177 385 -372 20 -79 14 -261 -11 -355 -30 -111 -91 -220
-174 -307 -85 -91 -157 -142 -264 -186 -129 -54 -198 -62 -560 -65 -322 -2
-328 -2 -325 18 2 14 13 21 40 26 44 7 82 30 105 65 19 30 243 1019 243 1076
0 43 -31 74 -86 84 -32 6 -43 21 -26 38 4 5 140 6 302 3 258 -4 305 -7 371
-25z m891 11 c3 -10 38 -223 78 -473 40 -250 76 -458 80 -462 3 -4 23 23 44
60 21 37 147 253 279 480 l239 412 189 0 c104 0 189 -3 189 -7 -1 -19 -18 -32
-54 -38 -53 -10 -101 -56 -120 -113 -23 -71 -226 -994 -226 -1028 0 -44 25
-73 76 -85 32 -8 44 -16 42 -27 -3 -13 -38 -16 -261 -18 -141 -1 -259 2 -262
6 -8 13 24 40 48 40 38 0 87 38 107 83 16 37 66 251 184 792 19 88 38 169 42
180 4 11 5 18 2 15 -3 -3 -114 -192 -245 -420 -401 -693 -405 -700 -423 -700
-10 0 -20 6 -23 13 -2 6 -44 252 -93 545 -49 294 -89 530 -91 525 -20 -71
-193 -879 -193 -902 0 -71 46 -131 102 -131 21 0 28 -5 28 -20 0 -24 13 -22
-212 -24 -162 -1 -178 1 -178 16 0 12 13 21 40 28 22 6 55 24 73 40 63 55 82
109 152 421 37 162 84 372 106 467 21 96 39 189 39 208 0 44 -36 80 -91 89
-21 4 -39 8 -39 10 0 2 3 10 6 19 5 14 31 16 184 16 161 0 178 -2 182 -17z
M2940 5705 c0 -4 -99 -454 -210 -953 -28 -123 -50 -227 -50 -232 0 -13 103
-12 200 0 276 36 474 301 509 683 26 277 -72 452 -277 496 -53 11 -172 15
-172 6z M8708 6021 c-43 -8 -78 -18 -78 -23 0 -4 5 -8 10 -8 6 0 19 -9 30 -20
19 -19 20 -33 20 -339 0 -192 -4 -330 -10 -346 -6 -15 -19 -29 -30 -32 -47
-12 -12 -18 92 -15 76 3 106 7 91 12 -38 15 -43 41 -43 217 1 131 4 172 15
187 45 60 134 75 176 30 23 -25 24 -31 27 -201 4 -198 1 -220 -31 -232 -15 -6
12 -10 86 -12 59 -2 107 -2 107 1 0 3 -10 10 -22 15 -32 15 -39 55 -32 190 7
134 -5 232 -33 270 -56 76 -186 69 -255 -14 -15 -17 -29 -31 -32 -31 -3 0 -7
82 -8 183 l-3 182 -77 -14z M12897 6020 c-78 -16 -78 -16 -47 -38 30 -23 30
-23 30 -362 0 -339 0 -339 -30 -362 -29 -23 -29 -23 83 -20 74 3 105 7 90 12
-12 5 -24 18 -28 30 -4 12 -7 99 -7 194 0 171 0 171 38 203 28 25 47 33 75 33
91 0 99 -20 99 -249 0 -180 0 -180 -26 -200 -27 -21 -27 -21 82 -20 75 0 102
3 87 9 -30 12 -32 27 -35 235 -3 151 -6 185 -21 213 -41 76 -138 95 -219 43
-26 -16 -52 -39 -58 -50 -24 -45 -30 -16 -32 162 l-3 182 -78 -15z M14862
6021 c-73 -16 -73 -16 -43 -38 30 -23 30 -24 33 -133 2 -60 0 -110 -3 -110 -4
0 -20 7 -35 15 -63 33 -168 14 -231 -40 -73 -62 -109 -178 -91 -291 17 -110
83 -186 173 -199 50 -8 116 17 154 59 34 36 41 33 41 -18 0 -44 0 -44 33 -36
17 5 51 14 75 20 44 11 44 11 18 35 -26 24 -26 24 -26 390 0 286 -3 365 -12
364 -7 -1 -46 -9 -86 -18z m-46 -305 c34 -34 34 -34 32 -212 -3 -178 -3 -178
-37 -201 -23 -16 -49 -23 -79 -23 -89 0 -139 95 -130 248 8 134 64 222 140
222 32 0 47 -7 74 -34z M6369 5977 c49 -28 50 -41 50 -367 1 -327 -2 -348 -49
-361 -14 -4 67 -7 180 -6 199 2 207 3 262 29 126 59 198 166 206 310 10 175
-62 310 -201 374 -61 28 -65 29 -267 32 -178 2 -202 1 -181 -11z m364 -30
c158 -67 216 -344 114 -547 -53 -105 -146 -157 -269 -148 -43 3 -43 3 -46 353
-1 192 0 355 2 361 7 18 143 5 199 -19z M7931 5976 c47 -27 50 -49 47 -378 -3
-282 -4 -308 -22 -326 -10 -12 -28 -23 -40 -25 -11 -2 65 -5 170 -6 253 -1
321 18 407 120 124 144 108 418 -31 540 -80 70 -129 82 -357 86 -181 3 -197 2
-174 -11z m336 -17 c132 -41 206 -209 182 -416 -11 -103 -38 -168 -87 -216
-50 -48 -101 -68 -194 -75 l-78 -5 0 360 c0 198 2 362 5 364 7 8 137 -2 172
-12z M11490 5971 c60 -31 61 -37 58 -346 -3 -253 -5 -284 -22 -319 -12 -23
-32 -44 -50 -52 -28 -12 -22 -13 74 -13 68 0 98 3 84 9 -33 13 -62 57 -69 103
-3 23 -5 157 -3 297 l3 255 135 -337 c120 -301 150 -366 150 -326 0 6 44 131
99 277 54 146 109 295 122 331 24 65 24 65 27 -243 2 -322 0 -340 -41 -357
-14 -6 21 -9 103 -9 82 0 117 3 103 9 -46 19 -48 36 -47 355 0 165 3 311 7
325 3 14 19 33 34 42 28 17 27 17 -62 18 l-90 0 -79 -212 c-127 -341 -138
-370 -143 -364 -5 4 -61 141 -175 424 -61 152 -61 152 -157 152 -96 0 -96 0
-61 -19z M10174 5954 c-20 -19 -24 -31 -19 -52 4 -15 11 -33 17 -39 15 -18 83
-16 98 3 21 25 16 75 -9 96 -32 25 -57 23 -87 -8z M11001 5954 c-26 -33 -27
-58 -1 -84 24 -24 82 -27 100 -4 21 25 16 75 -9 96 -33 26 -66 23 -90 -8z
M15130 5973 c-68 -24 -41 -123 35 -123 61 0 85 61 40 105 -23 24 -44 29 -75
18z M7175 5754 c-27 -7 -60 -14 -72 -14 -13 0 -23 -3 -23 -8 0 -4 10 -12 23
-17 32 -15 41 -99 31 -291 -9 -155 -10 -159 -34 -171 -21 -11 -9 -13 90 -12
63 0 108 3 100 6 -47 17 -50 29 -50 189 0 158 6 193 42 232 26 27 51 28 93 2
29 -18 33 -18 53 -4 46 32 17 104 -42 104 -51 0 -91 -33 -123 -102 -9 -21 -20
-38 -23 -38 -3 0 -4 32 -2 70 2 39 0 70 -4 69 -5 0 -31 -7 -59 -15z M9324
5747 c-57 -28 -84 -59 -84 -97 0 -47 34 -68 69 -44 15 11 21 26 21 53 0 59 31
91 86 91 63 0 84 -36 84 -142 0 -76 0 -78 -27 -84 -122 -27 -178 -51 -220 -92
-54 -55 -49 -132 12 -180 58 -45 136 -37 203 22 27 24 36 28 40 16 3 -8 18
-28 34 -44 24 -24 34 -27 61 -22 18 4 45 20 62 36 29 29 29 29 -8 23 -26 -4
-38 -2 -42 8 -2 8 -6 93 -8 189 -3 193 -10 219 -68 261 -49 34 -149 37 -215 6z
m176 -332 c0 -95 0 -95 -32 -115 -50 -30 -91 -26 -123 12 -22 26 -26 39 -22
71 7 49 29 74 92 103 84 40 85 39 85 -71z M9947 5740 c-18 -16 -42 -47 -52
-70 -10 -22 -21 -40 -24 -40 -3 0 -6 29 -5 65 0 74 5 71 -91 53 -63 -11 -63
-11 -38 -32 25 -22 25 -22 25 -231 -1 -210 -1 -210 -26 -230 -25 -20 -25 -20
87 -16 62 2 105 6 97 8 -47 17 -50 28 -50 196 0 144 2 163 21 197 31 56 58 64
103 34 28 -19 40 -22 55 -14 41 22 38 84 -6 101 -40 15 -60 11 -96 -21z
M10186 5746 c-63 -15 -75 -21 -59 -27 38 -14 43 -40 43 -233 0 -189 -7 -231
-39 -239 -9 -3 34 -5 94 -5 71 -1 102 2 89 8 -12 5 -26 15 -30 22 -5 7 -11
121 -14 254 l-5 240 -79 -20z M10455 5751 c-38 -8 -71 -15 -73 -17 -2 -1 8
-13 22 -27 26 -26 26 -26 26 -216 0 -196 -6 -236 -37 -244 -10 -3 32 -5 92 -5
73 -1 103 2 88 8 -12 5 -26 18 -32 29 -14 25 -15 346 -1 371 16 30 74 60 117
60 30 0 46 -7 64 -26 23 -25 24 -31 27 -201 4 -198 1 -220 -31 -233 -15 -6 10
-9 82 -9 100 -1 103 0 81 17 -20 16 -21 26 -24 207 -3 204 -8 226 -59 274 -58
53 -176 31 -233 -45 -29 -38 -29 -38 -34 17 -5 54 -5 54 -75 40z M11050 5754
c-25 -7 -58 -13 -75 -13 -30 -1 -30 -1 -2 -24 28 -22 28 -22 25 -237 -3 -214
-3 -214 -28 -227 -22 -11 -10 -13 84 -13 109 0 109 0 82 21 -26 20 -26 20 -26
265 0 134 -3 243 -7 243 -5 -1 -28 -7 -53 -15z M12443 5750 c-58 -26 -93 -63
-93 -98 0 -35 16 -52 50 -52 36 0 50 17 50 61 0 97 119 131 155 44 8 -19 15
-66 15 -104 0 -69 0 -69 -70 -85 -119 -27 -190 -71 -210 -132 -23 -67 30 -146
106 -160 43 -8 111 16 144 51 28 30 37 31 45 5 16 -50 80 -67 130 -34 29 19
44 49 16 35 -13 -7 -24 -6 -37 4 -17 12 -19 32 -24 208 -5 191 -6 196 -30 223
-14 14 -39 33 -57 40 -47 20 -140 17 -190 -6z m177 -333 c0 -110 -10 -126 -84
-134 -38 -5 -48 -2 -70 20 -20 20 -26 36 -26 69 0 24 6 50 13 58 28 36 107 77
150 79 15 1 17 -10 17 -92z M13560 5754 c-92 -40 -142 -122 -148 -245 -4 -72
-1 -93 18 -137 37 -86 129 -152 211 -152 75 0 153 50 190 121 26 52 24 71 -3
31 -27 -38 -91 -72 -137 -72 -77 0 -149 68 -170 160 -22 97 -34 90 159 90 170
0 170 0 170 33 0 40 -30 105 -61 134 -56 51 -158 68 -229 37z m145 -24 c22
-25 44 -87 45 -127 0 -33 0 -33 -120 -33 -66 0 -120 4 -120 8 0 25 33 113 51
136 35 44 111 53 144 16z M13985 5751 c-38 -8 -71 -15 -73 -17 -2 -1 8 -13 22
-27 26 -26 26 -26 26 -222 0 -196 -6 -235 -35 -235 -8 0 -15 -3 -15 -7 0 -5
48 -6 107 -4 75 2 101 6 85 12 -35 13 -42 49 -42 223 0 162 0 162 34 195 27
27 46 35 84 39 45 4 50 2 75 -28 27 -32 27 -32 25 -223 -3 -191 -3 -191 -27
-204 -21 -10 -9 -12 82 -15 59 -2 107 0 107 5 0 4 -6 7 -14 7 -8 0 -18 6 -23
13 -4 6 -10 100 -13 207 -4 172 -7 199 -25 229 -24 41 -77 71 -124 71 -49 0
-117 -36 -149 -78 -27 -36 -27 -36 -32 19 -5 54 -5 54 -75 40z M15170 5758
c-19 -5 -52 -14 -73 -19 -38 -10 -38 -10 -13 -30 26 -20 26 -20 26 -222 0
-111 -4 -207 -8 -213 -4 -6 -16 -16 -27 -22 -16 -9 3 -11 89 -12 109 0 109 0
82 21 -26 20 -26 20 -26 265 0 134 -3 244 -7 243 -5 0 -24 -5 -43 -11z M15393
5751 c-40 -8 -73 -19 -73 -23 0 -4 7 -8 15 -8 30 0 35 -38 33 -247 -3 -207 -3
-207 -28 -220 -22 -11 -9 -13 90 -12 63 0 108 3 100 6 -47 17 -50 28 -50 196
0 173 9 213 57 244 22 14 26 14 62 -11 40 -28 64 -27 81 5 15 27 12 47 -10 69
-44 44 -107 19 -157 -62 -20 -32 -38 -58 -40 -58 -2 0 -3 29 -2 65 1 36 0 66
-2 68 -2 1 -37 -4 -76 -12z M15833 5754 c-46 -17 -103 -74 -103 -102 0 -39 40
-65 78 -51 17 7 22 16 22 44 0 104 102 152 151 71 14 -23 19 -50 19 -107 0
-77 0 -77 -67 -93 -91 -23 -146 -50 -183 -92 -58 -67 -30 -166 56 -194 48 -16
93 -6 153 35 47 32 50 33 56 15 17 -53 89 -68 139 -29 30 24 36 45 7 30 -13
-7 -23 -7 -33 2 -13 10 -17 49 -22 192 -7 196 -16 230 -69 269 -36 27 -144 32
-204 10z m167 -338 c0 -90 -1 -96 -26 -115 -28 -22 -83 -28 -113 -11 -10 5
-24 23 -31 39 -27 65 14 135 95 165 75 27 75 28 75 -78z M7473 5355 c-34 -24
-32 -87 3 -114 33 -26 55 -26 85 -2 27 22 32 82 8 106 -23 23 -71 28 -96 10z
M2120 4061 c0 -8 65 -107 109 -166 169 -226 393 -413 653 -546 200 -102 438
-175 651 -200 146 -17 446 -7 578 20 312 63 575 181 824 369 97 73 262 239
340 342 62 82 125 174 125 182 0 2 -738 3 -1640 3 -902 0 -1640 -2 -1640 -4z"/>
</g>
<g transform="translate(0.000000,1008.000000) scale(0.100000,-0.100000)"
fill="#f7f3ec" stroke="none">
<path d="M1780 5554 l0 -1447 143 8 c78 4 143 8 145 9 1 2 -20 50 -48 107
-111 233 -168 472 -177 739 -18 560 187 1059 598 1455 154 149 297 248 487
337 868 411 1901 126 2431 -669 151 -227 255 -498 298 -778 23 -150 23 -414
-1 -560 -31 -196 -90 -385 -171 -545 -19 -38 -35 -73 -35 -78 0 -5 73 -12 163
-16 89 -4 178 -10 197 -15 35 -7 35 -7 -5 -14 -22 -4 -120 -10 -218 -13 -177
-7 -177 -7 -209 -58 -162 -265 -454 -528 -745 -675 -654 -329 -1441 -264
-2018 167 -182 135 -320 279 -438 454 -72 107 -72 107 -128 108 -31 0 -104 3
-162 7 l-107 6 0 -496 0 -497 2715 0 2715 0 0 875 0 875 -440 0 c-440 0 -440
0 -440 40 0 40 0 40 440 40 l440 0 0 155 c0 155 0 155 -70 155 -40 0 -70 4
-70 10 0 6 6 10 14 10 8 0 22 10 30 22 13 18 16 57 16 213 0 156 -3 195 -16
213 -8 12 -22 22 -30 22 -8 0 -14 4 -14 9 0 4 30 15 68 23 l67 14 3 617 2 617
-2715 0 -2715 0 0 -1446z m4938 436 c79 -13 170 -59 214 -109 72 -82 109 -215
91 -331 -21 -134 -89 -226 -211 -283 -67 -32 -67 -32 -264 -35 -139 -3 -198
-1 -198 7 0 6 6 11 14 11 8 0 22 10 30 22 14 19 16 68 16 336 0 202 -4 320
-11 333 -5 11 -22 25 -37 31 -26 12 -25 12 23 18 96 10 266 10 333 0z m93
-1473 c78 -38 112 -89 117 -179 3 -55 0 -76 -18 -113 -20 -41 -35 -55 -108
-101 -2 -1 28 -47 67 -101 39 -54 71 -101 71 -105 0 -5 -29 -8 -64 -8 -63 0
-63 0 -127 95 -63 95 -63 95 -146 95 -83 0 -83 0 -83 -95 0 -95 0 -95 -60 -95
l-60 0 0 321 0 321 178 -4 c170 -3 179 -4 233 -31z M6540 5616 l0 -356 61 0
c90 0 137 18 190 70 60 60 90 137 96 252 12 186 -46 315 -161 363 -22 9 -73
19 -113 22 l-73 6 0 -357z M6520 4325 l0 -125 90 0 c147 0 200 34 200 129 0
30 -7 49 -28 72 -32 35 -80 47 -194 48 -68 1 -68 1 -68 -124z M2570 5746 c0
-11 9 -16 29 -16 17 0 42 -10 58 -24 24 -21 28 -31 27 -73 -1 -44 -184 -885
-220 -1013 -20 -70 -54 -105 -115 -121 -26 -7 -51 -19 -54 -27 -4 -12 46 -13
337 -9 307 4 352 6 424 25 228 59 400 193 497 387 97 195 110 427 32 593 -63
134 -174 222 -340 269 -89 25 -675 33 -675 9z m585 -53 c177 -58 254 -203 241
-458 -18 -371 -209 -659 -474 -714 -29 -6 -98 -11 -153 -11 -91 0 -100 2 -95
18 2 9 62 276 131 592 69 316 128 581 131 589 6 18 146 8 219 -16z M3770 5745
c0 -10 10 -15 29 -15 37 0 88 -42 96 -79 4 -18 -23 -155 -75 -387 -44 -197
-92 -411 -106 -474 -16 -68 -39 -139 -57 -174 -33 -62 -91 -113 -139 -123 -15
-3 -29 -11 -32 -19 -4 -12 26 -14 183 -14 159 0 190 2 195 15 4 10 -1 15 -15
15 -53 0 -98 46 -113 116 -8 34 -8 31 94 489 39 176 78 353 87 394 18 86 25
80 42 -39 10 -71 116 -710 153 -927 8 -47 15 -63 27 -63 19 0 34 24 555 928
61 105 114 192 117 192 4 0 -4 -46 -17 -102 -13 -57 -62 -276 -108 -486 -95
-427 -106 -458 -176 -486 -22 -9 -49 -16 -60 -16 -11 0 -20 -7 -20 -15 0 -13
35 -15 255 -15 220 0 255 2 255 15 0 8 -9 15 -20 15 -36 0 -77 28 -89 60 -13
38 -13 40 114 610 55 252 105 454 118 479 27 55 61 81 115 88 26 4 42 11 42
19 0 11 -35 14 -184 14 l-183 0 -69 -117 c-37 -65 -114 -197 -170 -293 -55
-96 -149 -258 -208 -360 -59 -102 -111 -189 -115 -193 -5 -5 -11 11 -15 35 -3
24 -38 242 -78 486 l-72 442 -178 0 c-152 0 -178 -2 -178 -15z"/>
</g>
<g transform="translate(0.000000,1008.000000) scale(0.100000,-0.100000)"
fill="#a9781f" stroke="none">
<path d="M6331 4882 c-1 -42 -1 -42 2062 -37 1134 3 2148 7 2252 10 105 2 426
5 714 5 288 0 521 3 518 7 -4 3 -21 6 -39 5 -23 -1 -28 2 -18 8 8 6 30 10 49
10 19 0 32 2 30 5 -3 2 -1251 9 -2773 15 -2141 9 -2771 9 -2776 0 -6 -9 -9 -9
-13 1 -3 8 -6 -5 -6 -29z M12027 4893 c18 -2 50 -2 70 0 21 2 7 4 -32 4 -38 0
-55 -2 -38 -4z M12443 4548 c-29 -5 -53 -14 -53 -19 0 -6 -4 -7 -10 -4 -5 3
-10 1 -10 -5 0 -6 -4 -8 -10 -5 -5 3 -10 1 -10 -6 0 -7 -3 -9 -7 -6 -3 4 -12
-1 -20 -11 -10 -11 -12 -12 -8 -2 4 8 -1 6 -10 -5 -9 -11 -21 -19 -26 -17 -6
1 -8 -2 -5 -7 4 -5 -7 -19 -24 -31 -17 -12 -28 -26 -25 -31 4 -5 1 -9 -5 -9
-6 0 -8 -4 -5 -10 3 -5 1 -10 -5 -10 -6 0 -8 -4 -5 -10 3 -5 1 -10 -5 -10 -7
0 -10 -7 -7 -15 4 -8 2 -17 -2 -19 -10 -6 -7 -159 4 -198 4 -16 11 -28 17 -28
5 0 6 -4 3 -10 -3 -5 -1 -10 4 -10 6 0 11 -5 11 -10 0 -20 112 -118 128 -112
9 3 13 1 9 -5 -7 -11 40 -27 109 -38 80 -12 204 24 264 77 14 13 19 19 10 14
-8 -5 0 5 18 23 18 17 29 31 25 31 -4 0 3 9 15 20 12 12 23 28 23 38 1 17 4
33 8 42 7 17 6 162 -1 166 -5 3 -6 10 -3 15 4 5 2 9 -4 9 -6 0 -8 6 -5 14 3 7
-2 16 -10 19 -9 4 -16 15 -16 26 0 11 -9 25 -20 31 -11 6 -18 15 -15 21 4 5
-1 9 -9 9 -9 0 -16 5 -16 10 0 6 -7 10 -16 10 -8 0 -13 4 -10 8 6 11 -51 45
-63 38 -5 -4 -11 -1 -13 5 -2 6 -22 13 -43 15 -22 3 -53 6 -70 8 -16 3 -54 0
-82 -6z m195 -131 c48 -31 66 -56 91 -124 12 -34 15 -58 9 -83 -4 -19 -5 -41
-3 -47 2 -7 0 -13 -6 -13 -6 0 -7 -4 -4 -10 3 -5 1 -10 -5 -10 -6 0 -9 -4 -6
-9 3 -5 -1 -12 -10 -15 -8 -3 -13 -9 -11 -13 2 -5 -6 -18 -19 -31 -13 -12 -24
-19 -24 -15 0 4 -6 1 -13 -7 -15 -18 -24 -21 -112 -30 -38 -3 -73 -3 -76 2 -3
5 -15 10 -27 11 -12 0 -24 7 -27 15 -3 7 -9 11 -13 8 -5 -3 -22 9 -38 26 -16
17 -22 28 -14 24 9 -5 8 -2 -2 7 -10 8 -15 17 -11 20 3 4 2 7 -3 7 -26 0 -24
153 3 205 17 32 93 114 93 99 0 -2 10 1 23 6 12 5 54 9 93 7 58 -2 78 -7 112
-30z M15003 4552 c-24 -2 -43 -7 -43 -12 0 -5 -7 -7 -15 -4 -8 4 -15 1 -15 -7
0 -7 -3 -10 -6 -6 -9 8 -84 -31 -84 -44 0 -6 -4 -8 -9 -5 -4 3 -16 -3 -26 -14
-10 -11 -14 -20 -9 -20 5 0 -2 -10 -16 -21 -14 -11 -18 -18 -10 -14 10 4 9 2
-2 -8 -10 -8 -15 -17 -11 -20 3 -4 1 -7 -5 -7 -6 0 -9 -7 -5 -17 5 -12 3 -14
-7 -8 -10 6 -12 4 -7 -8 4 -10 2 -17 -5 -17 -7 0 -9 -13 -5 -35 4 -23 2 -33
-4 -29 -7 4 -8 -13 -4 -52 4 -33 11 -60 16 -62 4 -2 5 -10 2 -18 -3 -8 1 -14
8 -14 7 0 10 -3 6 -6 -9 -10 20 -61 38 -68 9 -3 14 -10 11 -15 -3 -4 4 -17 16
-27 15 -13 19 -14 14 -4 -4 8 2 3 14 -13 12 -15 26 -25 31 -21 5 3 9 1 9 -5 0
-34 223 -59 280 -31 8 4 23 7 43 8 11 1 15 7 11 14 -5 8 -2 9 9 5 10 -3 17 -2
17 4 0 6 5 7 10 4 6 -3 10 -1 10 5 0 6 5 8 10 5 20 -12 31 52 28 161 -3 111
-3 111 -53 110 -50 -1 -50 -1 -47 -94 3 -94 -3 -112 -38 -121 -37 -9 -113 -13
-153 -7 -47 7 -139 62 -143 86 -1 8 -9 32 -18 53 -18 41 -19 167 -2 167 5 0 6
3 3 6 -12 13 91 103 130 113 85 24 174 10 235 -38 26 -21 26 -21 52 10 14 17
26 35 26 40 0 6 6 7 13 3 6 -4 3 2 -7 14 -21 24 -30 29 -21 10 4 -7 -1 -4 -10
7 -9 11 -21 19 -26 18 -5 -2 -9 1 -9 6 0 23 -142 50 -227 43z M6405 4538 c-3
-7 -4 -150 -3 -318 3 -305 3 -305 58 -305 55 0 55 0 58 93 3 92 3 92 88 92 66
0 86 -3 90 -15 4 -8 11 -12 17 -8 5 3 7 2 4 -4 -4 -5 3 -19 13 -31 11 -12 20
-24 20 -27 0 -4 10 -16 23 -27 12 -11 15 -16 7 -12 -13 7 -13 6 0 -12 34 -45
45 -50 105 -51 33 -1 52 1 43 4 -10 2 -18 9 -18 14 0 6 6 7 13 4 6 -4 3 1 -7
9 -11 9 -16 16 -10 16 5 0 -2 10 -16 21 -14 11 -18 18 -10 14 8 -4 4 3 -10 14
-14 11 -21 21 -16 21 6 0 1 7 -10 15 -10 8 -15 15 -11 15 5 0 -2 14 -14 31
-22 31 -22 32 -3 45 36 26 82 73 76 78 -3 3 0 6 7 6 7 0 9 5 6 10 -3 6 -2 10
4 10 6 0 8 7 5 15 -4 8 -2 15 3 15 5 0 10 23 10 50 0 28 -4 50 -9 50 -5 0 -6
9 -3 20 4 13 2 20 -6 20 -7 0 -9 3 -6 7 4 3 -1 12 -11 20 -10 9 -11 11 -2 7 8
-4 2 6 -15 24 -32 34 -40 39 -30 20 4 -7 -3 -2 -14 11 -12 13 -32 24 -46 24
-14 0 -25 3 -25 8 0 10 7 9 -198 15 -120 4 -153 2 -157 -8z m305 -89 c0 -6 7
-9 15 -5 8 3 15 1 15 -5 0 -6 5 -7 10 -4 6 3 10 1 10 -5 0 -6 4 -9 9 -5 5 3
13 0 18 -7 8 -13 9 -18 12 -39 0 -5 5 -8 9 -5 4 2 5 -23 1 -58 -6 -60 -32
-111 -51 -100 -4 3 -8 1 -8 -4 0 -5 -52 -10 -115 -11 l-115 -2 0 125 0 125 88
4 c48 1 90 4 95 5 4 1 7 -3 7 -9z M7220 4540 c10 -6 11 -10 3 -10 -10 0 -13
-66 -13 -296 0 -223 3 -298 13 -308 6 -6 31 -13 53 -15 42 -2 42 -2 43 131 1
73 6 137 12 143 11 11 292 15 309 5 5 -3 11 -66 12 -140 3 -135 3 -135 58
-135 55 0 55 0 55 315 l0 315 -60 2 c-42 2 -54 0 -40 -7 17 -7 18 -9 3 -9 -16
-1 -18 -14 -18 -121 l0 -120 -165 0 c-185 0 -166 -21 -169 193 -1 67 -1 67
-56 67 -39 0 -51 -3 -40 -10z M8090 4540 c10 -6 11 -10 3 -10 -17 0 -19 -585
-2 -596 8 -4 7 -9 -2 -15 -8 -5 87 -8 226 -6 240 2 240 2 242 52 1 28 0 44 -3
38 -4 -9 -11 -10 -24 -3 -11 6 -85 9 -172 7 l-153 -2 -3 93 -3 92 131 0 c72 0
139 4 149 10 11 5 18 20 17 37 -1 28 -1 28 -141 36 -77 5 -144 10 -150 11 -6
2 -9 36 -7 85 l4 81 151 0 c84 0 158 4 165 9 8 5 15 27 16 50 2 41 2 41 -228
41 -153 0 -226 -4 -216 -10z M8831 4341 c-1 -135 2 -224 9 -252 14 -49 67
-132 80 -124 5 3 13 -3 19 -12 6 -10 11 -14 11 -10 0 5 7 2 14 -6 27 -26 135
-40 204 -27 34 7 62 17 62 22 0 5 5 6 10 3 6 -3 10 -1 10 5 0 6 4 9 9 5 5 -3
16 4 24 15 7 11 17 17 20 13 4 -3 7 1 7 9 0 9 7 19 16 22 8 3 13 10 10 15 -4
5 1 16 9 25 9 8 15 17 15 18 -1 2 4 16 10 32 14 38 12 423 -2 432 -6 4 -5 10
3 15 9 5 -9 8 -46 8 -33 0 -54 -3 -47 -6 6 -2 9 -10 5 -16 -5 -7 -11 -100 -14
-207 -8 -222 -9 -230 -29 -248 -13 -12 -13 -13 0 -6 9 4 7 -2 -5 -13 -11 -11
-23 -19 -26 -17 -4 2 -9 -3 -13 -11 -3 -8 -12 -12 -21 -9 -8 3 -15 2 -15 -3 0
-11 -92 -5 -125 7 -11 4 -23 7 -28 6 -11 -2 -45 58 -56 101 -6 21 -12 125 -13
231 -3 192 -3 192 -54 192 -50 0 -50 0 -53 -209z M9694 4537 c-2 -7 -3 -150
-2 -318 3 -304 3 -304 54 -307 51 -3 51 -3 50 188 -1 105 1 197 4 206 4 11 12
7 31 -15 15 -17 24 -33 21 -36 -3 -3 0 -5 7 -5 7 0 10 -4 7 -9 -3 -5 1 -12 10
-15 8 -3 12 -10 9 -16 -3 -5 -1 -10 5 -10 6 0 8 -4 5 -10 -3 -5 -1 -10 4 -10
6 0 11 -7 11 -15 0 -8 9 -23 19 -32 11 -9 18 -20 15 -25 -3 -4 -1 -8 4 -8 5 0
9 -6 9 -12 0 -26 46 -88 67 -92 46 -10 62 -2 57 27 0 4 4 7 10 7 5 0 7 5 4 10
-3 6 -2 10 4 10 12 0 45 60 34 60 -5 0 0 5 10 11 9 6 15 14 12 20 -4 5 -1 9 5
9 6 0 8 5 5 10 -3 6 -1 10 6 10 7 0 9 3 6 7 -4 3 1 12 11 20 11 10 12 12 2 8
-13 -6 -13 -5 0 7 8 7 16 20 18 27 2 8 11 20 20 28 9 7 13 13 8 13 -6 0 -1 7
10 16 10 8 13 12 5 8 -9 -5 -12 -3 -7 4 14 23 36 13 36 -15 1 -16 1 -108 1
-206 0 -178 0 -178 52 -175 45 3 52 6 50 23 -1 11 -3 154 -3 318 -2 297 -2
297 -45 297 -42 0 -60 -11 -67 -39 -2 -8 -11 -23 -21 -33 -10 -10 -15 -23 -12
-28 4 -6 1 -10 -6 -10 -7 0 -9 -3 -6 -7 4 -3 -1 -12 -11 -20 -11 -10 -12 -12
-2 -8 8 4 6 -1 -4 -9 -11 -9 -16 -16 -10 -16 5 0 1 -5 -9 -11 -9 -6 -15 -14
-12 -20 4 -5 1 -9 -6 -9 -7 0 -10 -3 -7 -6 4 -3 -2 -14 -13 -25 -11 -11 -17
-24 -14 -29 4 -6 1 -10 -6 -10 -7 0 -10 -3 -7 -6 4 -3 -2 -14 -13 -25 -11 -11
-17 -24 -14 -29 4 -6 1 -10 -6 -10 -7 0 -9 -3 -6 -7 4 -3 -1 -12 -11 -20 -11
-10 -12 -12 -2 -8 8 4 6 -1 -4 -9 -22 -18 -51 -22 -41 -6 3 6 -1 13 -9 16 -9
3 -13 10 -10 15 3 5 0 9 -6 9 -6 0 -9 4 -6 8 3 5 -3 18 -14 29 -10 12 -16 23
-13 27 3 3 -2 8 -11 12 -9 3 -13 10 -10 15 3 5 0 9 -6 9 -6 0 -8 5 -5 10 3 6
1 10 -4 10 -6 0 -11 7 -11 15 0 8 -4 15 -10 15 -5 0 -9 3 -8 8 4 11 -44 92
-54 92 -5 0 -7 4 -4 8 3 5 -2 18 -12 28 -9 11 -18 26 -20 34 -2 8 -8 21 -14
27 -14 17 -97 17 -104 0z M10873 4473 c-20 -43 -36 -84 -36 -90 0 -7 -4 -13
-7 -13 -9 0 -33 -56 -33 -76 0 -8 -4 -14 -9 -14 -5 0 -6 -4 -3 -10 3 -5 1 -10
-5 -10 -6 0 -8 -4 -5 -10 3 -5 1 -10 -5 -10 -7 0 -10 -6 -8 -12 3 -7 -1 -19
-9 -26 -7 -8 -11 -18 -8 -23 4 -5 2 -9 -3 -9 -12 0 -33 -56 -25 -64 4 -3 1 -6
-6 -6 -7 0 -9 -4 -6 -10 3 -5 1 -10 -5 -10 -6 0 -8 -4 -5 -10 3 -5 1 -10 -5
-10 -6 0 -8 -4 -5 -10 3 -5 1 -10 -5 -10 -7 0 -10 -7 -6 -15 3 -8 1 -15 -5
-15 -6 0 -7 -4 -4 -10 3 -5 1 -10 -5 -10 -6 0 -8 -4 -5 -10 3 -5 2 -10 -4 -10
-6 0 -7 -7 -4 -17 5 -12 3 -14 -8 -9 -8 4 -5 0 6 -10 20 -16 20 -16 -2 -11
-13 3 -23 1 -23 -4 0 -5 27 -9 61 -9 37 0 58 4 54 10 -3 6 -1 10 5 10 6 0 8 5
5 10 -3 6 -2 10 4 10 6 0 7 7 4 17 -4 11 -3 14 5 9 8 -5 10 -2 6 8 -3 9 -1 16
6 16 6 0 8 5 5 10 -3 6 -1 10 6 10 7 0 9 3 6 6 -4 4 2 14 12 23 16 14 42 17
170 15 154 -3 184 -10 173 -43 -3 -8 0 -11 7 -7 7 5 9 1 5 -8 -3 -9 -1 -16 6
-16 6 0 8 -4 5 -10 -3 -5 -1 -10 5 -10 6 0 8 -5 5 -11 -4 -6 1 -17 11 -25 11
-9 13 -12 5 -8 -9 5 -12 3 -7 -4 9 -15 126 -16 126 -1 0 5 -4 7 -10 4 -6 -3
-7 1 -4 9 3 9 1 16 -6 16 -6 0 -8 5 -5 10 3 6 1 10 -5 10 -6 0 -8 5 -5 10 3 6
2 10 -2 10 -5 0 -10 10 -10 22 -1 13 -7 24 -13 26 -5 2 -8 8 -4 13 3 5 0 9 -6
9 -6 0 -8 5 -5 10 3 6 2 10 -2 10 -5 0 -9 10 -10 22 -1 11 -6 24 -10 27 -4 3
-9 13 -11 21 -2 8 -8 17 -13 18 -5 2 -7 8 -3 13 3 5 0 9 -6 9 -6 0 -8 5 -5 10
3 6 2 10 -3 10 -5 0 -9 6 -9 14 0 23 -25 76 -36 76 -6 0 -8 3 -4 6 8 8 -13 64
-25 64 -5 0 -6 5 -3 10 3 6 1 10 -5 10 -6 0 -8 5 -5 10 3 6 1 10 -5 10 -6 0
-8 5 -5 10 3 6 2 10 -3 10 -6 0 -13 7 -16 16 -3 8 -2 12 4 9 6 -3 7 1 4 9 -3
9 -10 16 -16 16 -5 0 -6 5 -3 10 3 6 1 10 -6 10 -7 0 -9 3 -6 6 3 4 2 15 -4
25 -8 15 -21 19 -65 19 -55 0 -55 0 -91 -77z m114 -76 c0 -7 21 -61 46 -121
26 -60 47 -112 47 -117 0 -5 -52 -9 -115 -9 -63 0 -115 4 -115 9 0 5 9 30 20
55 10 25 16 46 12 46 -4 0 -1 4 6 9 7 4 14 18 15 29 1 12 4 22 8 22 4 0 10 7
13 16 3 8 2 12 -4 9 -6 -3 -7 1 -4 9 3 9 10 16 16 16 5 0 6 5 3 10 -3 6 -1 10
5 10 6 0 9 4 6 9 -7 11 14 20 30 14 6 -2 11 -9 11 -16z M11441 4509 c-1 -26 3
-45 11 -50 7 -5 55 -9 106 -9 l92 0 0 -259 c0 -259 0 -259 28 -264 15 -3 39
-8 53 -11 17 -4 26 -1 26 7 1 6 2 122 3 257 0 135 5 252 10 259 6 10 32 14 97
13 79 0 91 2 102 20 10 16 10 19 -1 12 -10 -6 -11 -4 -3 7 6 8 10 23 10 34 0
19 -8 20 -266 23 -265 2 -265 2 -268 -39z M13148 4244 c1 -169 4 -310 7 -314
3 -5 -1 -11 -7 -13 -7 -3 88 -5 212 -4 225 2 225 2 228 50 3 48 3 48 -162 44
-140 -4 -166 -2 -171 11 -3 8 -6 131 -6 273 -1 259 -1 259 -52 259 -52 0 -52
0 -49 -306z M14040 4544 c0 -5 -12 -10 -27 -11 -15 0 -29 -6 -31 -12 -2 -6 -8
-9 -13 -5 -5 3 -9 0 -9 -5 0 -6 -7 -11 -15 -11 -9 0 -18 -7 -21 -15 -4 -8 -9
-13 -14 -10 -4 2 -18 -8 -31 -23 -20 -22 -20 -24 -3 -12 12 9 10 5 -5 -10 -36
-36 -59 -65 -43 -56 17 10 15 0 -5 -20 -9 -9 -17 -32 -17 -50 0 -19 -4 -34 -8
-34 -9 0 -11 -64 -2 -73 4 -3 8 -23 9 -44 1 -20 7 -39 14 -41 6 -2 9 -7 6 -12
-8 -12 60 -105 74 -102 7 1 10 -2 7 -7 -7 -11 67 -58 99 -64 11 -2 29 -8 40
-13 59 -26 240 3 273 44 6 9 12 12 12 7 0 -23 91 84 111 129 24 56 38 196 19
196 -6 0 -8 10 -4 26 5 19 3 25 -4 20 -8 -5 -10 -2 -6 8 3 9 1 16 -6 16 -6 0
-8 5 -5 10 3 6 1 10 -5 10 -6 0 -9 4 -5 10 6 10 -84 106 -97 103 -4 -2 -8 2
-8 8 0 5 -4 7 -10 4 -5 -3 -10 -1 -10 5 0 6 -4 8 -10 5 -5 -3 -10 -1 -10 5 0
6 -4 9 -9 6 -5 -4 -11 -1 -13 6 -5 13 -218 25 -218 12z m184 -105 c-5 -8 35
-25 49 -21 5 1 6 -2 3 -7 -3 -5 9 -22 27 -38 38 -35 39 -38 45 -128 4 -70 -2
-95 -42 -163 -17 -29 -43 -55 -32 -32 5 9 2 8 -7 -2 -8 -10 -17 -18 -20 -18
-3 0 -18 -5 -34 -11 -34 -13 -143 -17 -143 -5 0 4 -7 6 -15 2 -8 -3 -15 -1
-15 5 0 6 -4 7 -10 4 -5 -3 -10 -1 -10 6 0 7 -3 10 -6 7 -3 -4 -22 12 -42 35
-20 23 -39 44 -42 47 -13 13 -29 170 -17 170 5 0 7 7 3 15 -3 8 -1 15 5 15 6
0 8 4 5 9 -3 5 1 12 9 15 8 3 14 9 13 14 -4 12 53 59 94 77 34 15 191 18 182
4z M15538 4543 c6 -2 10 -9 6 -14 -3 -5 2 -12 10 -15 9 -3 13 -10 10 -15 -3
-5 0 -9 5 -9 6 0 10 -3 9 -7 -4 -11 75 -143 85 -143 4 0 5 -5 2 -10 -3 -6 1
-13 9 -16 9 -3 14 -10 11 -14 -3 -4 2 -11 11 -14 8 -3 12 -10 9 -16 -3 -5 -1
-10 5 -10 6 0 9 -4 5 -9 -3 -6 3 -14 12 -20 10 -6 14 -11 8 -11 -7 0 -7 -3 0
-8 30 -22 45 -76 45 -165 0 -133 2 -137 61 -137 27 0 48 3 47 8 0 4 2 14 6 23
4 10 6 62 4 117 -2 55 -1 99 3 97 6 -4 40 56 39 68 -1 5 7 15 17 23 10 7 15
14 11 14 -4 0 -1 8 7 18 8 9 15 20 15 25 0 4 9 16 20 27 12 12 18 25 15 29 -2
5 2 12 11 15 8 3 12 10 9 16 -3 5 -2 10 3 10 9 0 50 68 51 83 0 5 7 14 17 21
11 8 14 18 9 26 -5 9 -4 11 3 6 7 -4 12 -2 12 3 0 7 -23 11 -54 11 -39 0 -57
-5 -67 -17 -12 -16 -12 -17 1 -8 9 6 7 2 -3 -7 -11 -10 -15 -18 -11 -18 5 0 2
-6 -6 -13 -20 -15 -53 -67 -43 -67 4 0 -2 -7 -13 -16 -10 -8 -12 -13 -4 -9 13
6 13 5 0 -7 -8 -7 -16 -20 -18 -28 -2 -8 -13 -23 -25 -33 -12 -10 -15 -16 -7
-12 10 4 9 2 -2 -8 -10 -8 -15 -17 -11 -20 3 -4 1 -7 -6 -7 -7 0 -10 -4 -7 -9
3 -5 -1 -12 -9 -15 -17 -6 -57 23 -49 36 3 4 0 8 -6 8 -6 0 -9 4 -6 9 3 5 -7
21 -22 37 -15 15 -20 24 -12 20 9 -5 8 -2 -2 7 -10 8 -15 17 -11 20 3 4 1 7
-6 7 -7 0 -9 5 -6 10 3 6 -1 13 -9 16 -9 3 -14 10 -11 14 3 4 -2 11 -11 14 -8
3 -13 10 -10 15 3 5 -1 12 -10 15 -8 3 -12 10 -9 16 3 5 1 10 -5 10 -6 0 -8 5
-5 10 3 6 -1 10 -10 10 -9 0 -13 5 -10 10 4 6 -17 10 -57 9 -35 0 -57 -3 -50
-6z M1975 4117 c-55 -4 -116 -10 -135 -13 -31 -5 -33 -7 -15 -17 23 -14 3496
-27 3700 -15 66 5 163 11 215 15 95 7 95 7 45 16 -63 12 -3673 25 -3810 14z"/>
</g>
</svg>
