<svg xmlns="http://www.w3.org/2000/svg" viewBox="-5.5 0 1682.8 400" role="img" aria-label="Dr. Dharini Mahendira Rheumatology"><circle cx="200.0" cy="200.0" r="190.0" fill="#f7f3ec"/><path d="M-3.5,295.0 Q200.0,287.97 403.5,295.0 Q200.0,302.03 -3.5,295.0 Z" fill="#a9781f"/><g transform="translate(25.0,275.6)" fill="#432a49"><path d="M333.401123046875 708Q524.8018798828125 708 617.6022338867188 618.5Q710.402587890625 529 710.402587890625 362Q710.402587890625 253 664.9024047851562 171.5Q619.4022216796875 90 533.0018920898438 45.0Q446.6015625 0 324.401123046875 0Q309.0010986328125 0 283.40106201171875 1.0Q257.801025390625 2 230.30096435546875 2.5Q202.8009033203125 3 180.40087890625 3Q139.4005126953125 3 100.00018310546875 2.5Q60.599853515625 2 36.399658203125 0V20Q69.1995849609375 22 85.69952392578125 28.0Q102.199462890625 34 107.7994384765625 52.0Q113.3994140625 70 113.3994140625 106V602Q113.3994140625 639 107.7994384765625 656.5Q102.199462890625 674 85.49951171875 680.5Q68.799560546875 687 36.399658203125 688V708Q60.599853515625 707 100.00018310546875 705.5Q139.4005126953125 704 178.40087890625 705Q214.200927734375 706 259.20098876953125 707.0Q304.2010498046875 708 333.401123046875 708ZM324.402099609375 690Q278.402099609375 690 264.402099609375 673.0Q250.402099609375 656 250.402099609375 604V104Q250.402099609375 52 264.902099609375 35.0Q279.402099609375 18 325.402099609375 18Q418.0010986328125 18 470.400634765625 57.5Q522.8001708984375 97 544.6000366210938 173.0Q566.39990234375 249 566.39990234375 358Q566.39990234375 470 542.7000732421875 543.5Q519.000244140625 617 466.1007080078125 653.5Q413.201171875 690 324.402099609375 690Z" transform="translate(0.00,0) scale(0.21000,-0.21000)"/><path d="M872.20263671875 708V688Q839.802734375 687 823.102783203125 680.5Q806.40283203125 674 800.8028564453125 656.5Q795.202880859375 639 795.202880859375 602V106Q795.202880859375 70 801.0028686523438 52.0Q806.8028564453125 34 823.3027954101562 28.0Q839.802734375 22 872.20263671875 20V0Q846.00244140625 2 806.1021118164062 2.5Q766.2017822265625 3 725.201416015625 3Q680.2010498046875 3 640.8007202148438 2.5Q601.400390625 2 577.2001953125 0V20Q611.2001953125 22 628.7001953125 28.0Q646.2001953125 34 652.2001953125 52.0Q658.2001953125 70 658.2001953125 106V649.9996337890625L664.600341796875 648.999755859375L417.2001953125 -2.599853515625H401.2001953125L137.199462890625 643.5999755859375V148.001953125Q137.199462890625 99.6011962890625 143.2994384765625 73.100830078125Q149.3994140625 46.6004638671875 169.699462890625 35.30029296875Q189.99951171875 24.0001220703125 232.19970703125 20V0Q213.399658203125 2 183.1995849609375 2.5Q152.99951171875 3 126.199462890625 3Q102.3995361328125 3 77.89959716796875 2.5Q53.399658203125 2 37.19970703125 0V20Q69.9996337890625 24.0001220703125 86.49957275390625 34.9002685546875Q102.99951171875 45.8004150390625 108.5994873046875 70.90069580078125Q114.199462890625 96.0009765625 114.199462890625 140.00146484375V602Q114.199462890625 639 108.5994873046875 656.5Q102.99951171875 674 86.299560546875 680.5Q69.599609375 687 37.19970703125 688V708Q53.399658203125 707 77.89959716796875 706.0Q102.3995361328125 705 126.199462890625 705Q162.600341796875 705 197.90106201171875 706.0Q233.2017822265625 707 260.00244140625 708L475.4017333984375 170.8037109375L453.201416015625 152.8031005859375L662.200439453125 705Q677.400634765625 705 693.5009155273438 705.0Q709.6011962890625 705 725.201416015625 705Q766.2017822265625 705 806.1021118164062 706.0Q846.00244140625 707 872.20263671875 708Z" transform="translate(159.18,0) scale(0.21000,-0.21000)"/></g><g transform="translate(470.0,181.0)" fill="#f7f3ec"><path d="M329.7203369140625 708Q518.6405639648438 708 610.2806701660156 618.5Q701.9207763671875 529 701.9207763671875 362Q701.9207763671875 253 657.0207214355469 171.5Q612.1206665039062 90 526.8005676269531 45.0Q441.48046875 0 320.7203369140625 0Q305.40032958984375 0 279.9203186035156 1.0Q254.4403076171875 2 227.14028930664062 2.5Q199.84027099609375 3 177.520263671875 3Q137.72015380859375 3 99.40005493164062 2.5Q61.0799560546875 2 37.5198974609375 0V20Q70.55987548828125 22 87.25985717773438 28.0Q103.9598388671875 34 109.63983154296875 52.0Q115.31982421875 70 115.31982421875 106V602Q115.31982421875 639 109.63983154296875 656.5Q103.9598388671875 674 87.099853515625 680.5Q70.2398681640625 687 37.5198974609375 688V708Q61.0799560546875 707 99.40005493164062 705.5Q137.72015380859375 704 175.520263671875 705Q211.1602783203125 706 255.96029663085938 707.0Q300.76031494140625 708 329.7203369140625 708ZM317.5206298828125 690Q271.5206298828125 690 257.5206298828125 673.0Q243.5206298828125 656 243.5206298828125 604V104Q243.5206298828125 52 258.0206298828125 35.0Q272.5206298828125 18 318.5206298828125 18Q414.40032958984375 18 468.3201904296875 57.5Q522.2400512695312 97 544.4800109863281 173.0Q566.719970703125 249 566.719970703125 358Q566.719970703125 470 542.4600219726562 543.5Q518.2000732421875 617 463.78021240234375 653.5Q409.3603515625 690 317.5206298828125 690Z" transform="translate(0.00,0) scale(0.11441,-0.11441)"/><path d="M354.7203369140625 530.280029296875Q384.60040283203125 530.280029296875 404.9403991699219 517.8399963378906Q425.2803955078125 505.39996337890625 435.6603698730469 485.97991943359375Q446.04034423828125 466.55987548828125 446.04034423828125 444.2398681640625Q446.04034423828125 412.8397216796875 427.34027099609375 391.4396667480469Q408.64019775390625 370.03961181640625 377.840087890625 370.03961181640625Q349.47991943359375 370.03961181640625 331.3998718261719 385.6196594238281Q313.31982421875 401.19970703125 313.31982421875 428.43975830078125Q313.31982421875 452.2398681640625 325.099853515625 468.4599304199219Q336.8798828125 484.67999267578125 352.75994873046875 494.9200439453125Q342.2398681640625 501.719970703125 328.2398681640625 499.47991943359375Q303.32000732421875 497.8798828125 282.1201171875 482.4199523925781Q260.92022705078125 466.96002197265625 246.12030029296875 443.5601501464844Q231.32037353515625 420.1602783203125 223.08041381835938 393.5804138183594Q214.8404541015625 367.00054931640625 214.8404541015625 343.16064453125V103Q214.8404541015625 54.32000732421875 240.62039184570312 37.660003662109375Q266.40032958984375 21 314.4403076171875 21V0Q291.4403076171875 1 248.32028198242188 2.5Q205.20025634765625 4 157.8802490234375 4Q120.36016845703125 4 82.86007690429688 2.5Q45.3599853515625 1 26.43994140625 0V21Q64.2398681640625 21 80.13983154296875 36.0Q96.039794921875 51 96.039794921875 93V407.280029296875Q96.039794921875 452.280029296875 81.31982421875 473.780029296875Q66.599853515625 495.280029296875 26.43994140625 495.280029296875V516.280029296875Q58.43994140625 513.280029296875 88.43994140625 513.280029296875Q124.16009521484375 513.280029296875 156.1002197265625 516.780029296875Q188.04034423828125 520.280029296875 214.8404541015625 527.280029296875V419.24041748046875Q226.48046875 447.2803955078125 246.50045776367188 472.62030029296875Q266.52044677734375 497.960205078125 294.0804138183594 514.1201171875Q321.640380859375 530.280029296875 354.7203369140625 530.280029296875Z" transform="translate(85.92,0) scale(0.11441,-0.11441)"/><path d="M130.80010986328125 128.080322265625Q163.520263671875 128.080322265625 184.76031494140625 108.28030395507812Q206.0003662109375 88.48028564453125 206.0003662109375 57.0401611328125Q206.0003662109375 25.60003662109375 184.76031494140625 5.800018310546875Q163.520263671875 -14 130.80010986328125 -14Q97.75994873046875 -14 76.67990112304688 5.800018310546875Q55.599853515625 25.60003662109375 55.599853515625 57.0401611328125Q55.599853515625 88.48028564453125 76.67990112304688 108.28030395507812Q97.75994873046875 128.080322265625 130.80010986328125 128.080322265625Z" transform="translate(138.20,0) scale(0.11441,-0.11441)"/><path d="M329.7203369140625 708Q518.6405639648438 708 610.2806701660156 618.5Q701.9207763671875 529 701.9207763671875 362Q701.9207763671875 253 657.0207214355469 171.5Q612.1206665039062 90 526.8005676269531 45.0Q441.48046875 0 320.7203369140625 0Q305.40032958984375 0 279.9203186035156 1.0Q254.4403076171875 2 227.14028930664062 2.5Q199.84027099609375 3 177.520263671875 3Q137.72015380859375 3 99.40005493164062 2.5Q61.0799560546875 2 37.5198974609375 0V20Q70.55987548828125 22 87.25985717773438 28.0Q103.9598388671875 34 109.63983154296875 52.0Q115.31982421875 70 115.31982421875 106V602Q115.31982421875 639 109.63983154296875 656.5Q103.9598388671875 674 87.099853515625 680.5Q70.2398681640625 687 37.5198974609375 688V708Q61.0799560546875 707 99.40005493164062 705.5Q137.72015380859375 704 175.520263671875 705Q211.1602783203125 706 255.96029663085938 707.0Q300.76031494140625 708 329.7203369140625 708ZM317.5206298828125 690Q271.5206298828125 690 257.5206298828125 673.0Q243.5206298828125 656 243.5206298828125 604V104Q243.5206298828125 52 258.0206298828125 35.0Q272.5206298828125 18 318.5206298828125 18Q414.40032958984375 18 468.3201904296875 57.5Q522.2400512695312 97 544.4800109863281 173.0Q566.719970703125 249 566.719970703125 358Q566.719970703125 470 542.4600219726562 543.5Q518.2000732421875 617 463.78021240234375 653.5Q409.3603515625 690 317.5206298828125 690Z" transform="translate(195.75,0) scale(0.11441,-0.11441)"/><path d="M207.760498046875 782.6799926757812V424.68035888671875Q233.1204833984375 483.72015380859375 277.700439453125 507.0000915527344Q322.2803955078125 530.280029296875 374.24041748046875 530.280029296875Q414.80047607421875 530.280029296875 440.6204833984375 519.8000183105469Q466.44049072265625 509.32000732421875 482.48046875 491.6400146484375Q500.200439453125 472.280029296875 507.88043212890625 442.280029296875Q515.5604248046875 412.280029296875 515.5604248046875 361.280029296875V93Q515.5604248046875 51 531.4603881835938 36.0Q547.3603515625 21 585.1602783203125 21V0Q567.2002563476562 1 530.4402160644531 2.5Q493.68017578125 4 458.7601318359375 4Q422.88006591796875 4 388.6600036621094 2.5Q354.43994140625 1 337.159912109375 0V21Q369.9598388671875 21 383.35980224609375 36.0Q396.759765625 51 396.759765625 93V393.520263671875Q396.759765625 421.3201904296875 391.759765625 443.4801025390625Q386.759765625 465.6400146484375 371.49981689453125 478.75994873046875Q356.2398681640625 491.8798828125 326 491.8798828125Q292.36016845703125 491.8798828125 265.6602783203125 473.3599853515625Q238.96038818359375 454.840087890625 223.36044311523438 421.6802673339844Q207.760498046875 388.52044677734375 207.760498046875 345.76068115234375V93Q207.760498046875 51 221.32046508789062 36.0Q234.88043212890625 21 267.3603515625 21V0Q250.40032958984375 1 217.14028930664062 2.5Q183.8802490234375 4 148.960205078125 4Q113.08013916015625 4 75.52008056640625 2.5Q37.96002197265625 1 19.3599853515625 0V21Q57.159912109375 21 73.05987548828125 36.0Q88.9598388671875 51 88.9598388671875 93V662.6799926757812Q88.9598388671875 707.6799926757812 74.2398681640625 729.1799926757812Q59.5198974609375 750.6799926757812 19.3599853515625 750.6799926757812V771.6799926757812Q51.3599853515625 768.6799926757812 81.3599853515625 768.6799926757812Q117.08013916015625 768.6799926757812 149.020263671875 772.1799926757812Q180.96038818359375 775.6799926757812 207.760498046875 782.6799926757812Z" transform="translate(281.67,0) scale(0.11441,-0.11441)"/><path d="M166.19989013671875 -7Q123.27984619140625 -7 93.27984619140625 9.300018310546875Q63.27984619140625 25.60003662109375 48.41986083984375 53.9200439453125Q33.55987548828125 82.24005126953125 33.55987548828125 117.6400146484375Q33.55987548828125 161 53.579864501953125 188.51998901367188Q73.599853515625 216.03997802734375 105.11984252929688 232.87997436523438Q136.63983154296875 249.719970703125 171.65982055664062 261.0599670410156Q206.6798095703125 272.39996337890625 238.19979858398438 282.89996337890625Q269.71978759765625 293.39996337890625 289.7397766113281 307.5599670410156Q309.759765625 321.719970703125 309.759765625 344.719970703125V415.36016845703125Q309.759765625 449.03997802734375 299.49981689453125 470.0799560546875Q289.2398681640625 491.11993408203125 270.159912109375 500.6999816894531Q251.0799560546875 510.280029296875 223.7999267578125 510.280029296875Q201.67999267578125 510.280029296875 177.66009521484375 504.0800476074219Q153.64019775390625 497.88006591796875 138.56024169921875 480.36016845703125Q162.68035888671875 473.4801025390625 177.32037353515625 455.0800476074219Q191.96038818359375 436.67999267578125 191.96038818359375 410.719970703125Q191.96038818359375 380.91986083984375 172.12030029296875 363.6997985839844Q152.28021240234375 346.479736328125 123.1201171875 346.479736328125Q90.60003662109375 346.479736328125 74.37997436523438 367.0597839355469Q58.159912109375 387.63983154296875 58.159912109375 415.11993408203125Q58.159912109375 442.719970703125 71.95993041992188 460.4800109863281Q85.75994873046875 478.24005126953125 109.280029296875 493.52008056640625Q134.52008056640625 509.840087890625 172.78012084960938 520.06005859375Q211.0401611328125 530.280029296875 257.0401611328125 530.280029296875Q300.6002197265625 530.280029296875 333.76031494140625 520.780029296875Q366.92041015625 511.280029296875 389.44049072265625 489.11993408203125Q413.8404541015625 465.75994873046875 421.200439453125 431.7399597167969Q428.5604248046875 397.719970703125 428.5604248046875 348.43994140625V73.6400146484375Q428.5604248046875 48.6400146484375 434.7803955078125 38.280029296875Q441.0003662109375 27.9200439453125 454.76031494140625 27.9200439453125Q464.80029296875 27.9200439453125 474.0002746582031 32.9200439453125Q483.20025634765625 37.9200439453125 494.960205078125 47L505.64019775390625 30Q484.3201904296875 13.03997802734375 461.0000915527344 3.019989013671875Q437.67999267578125 -7 404.39996337890625 -7Q370.91986083984375 -7 350.4798278808594 3.160003662109375Q330.039794921875 13.32000732421875 320.539794921875 32.17999267578125Q311.039794921875 51.03997802734375 310.71978759765625 77.83990478515625Q285.63983154296875 36.67999267578125 250.05987548828125 14.839996337890625Q214.47991943359375 -7 166.19989013671875 -7ZM221.080322265625 45.80029296875Q247.0401611328125 45.80029296875 269.1400146484375 59.840179443359375Q291.2398681640625 73.88006591796875 309.759765625 102.91986083984375V303.719970703125Q299.35980224609375 288 280.0398864746094 276.17999267578125Q260.719970703125 264.3599853515625 238.52008056640625 252.37997436523438Q216.3201904296875 240.39996337890625 196.30029296875 225.05996704101562Q176.2803955078125 209.719970703125 163.32046508789062 186.48001098632812Q150.36053466796875 163.24005126953125 150.36053466796875 127.72015380859375Q150.36053466796875 88.36016845703125 169.6204833984375 67.08023071289062Q188.88043212890625 45.80029296875 221.080322265625 45.80029296875Z" transform="translate(350.20,0) scale(0.11441,-0.11441)"/><path d="M354.7203369140625 530.280029296875Q384.60040283203125 530.280029296875 404.9403991699219 517.8399963378906Q425.2803955078125 505.39996337890625 435.6603698730469 485.97991943359375Q446.04034423828125 466.55987548828125 446.04034423828125 444.2398681640625Q446.04034423828125 412.8397216796875 427.34027099609375 391.4396667480469Q408.64019775390625 370.03961181640625 377.840087890625 370.03961181640625Q349.47991943359375 370.03961181640625 331.3998718261719 385.6196594238281Q313.31982421875 401.19970703125 313.31982421875 428.43975830078125Q313.31982421875 452.2398681640625 325.099853515625 468.4599304199219Q336.8798828125 484.67999267578125 352.75994873046875 494.9200439453125Q342.2398681640625 501.719970703125 328.2398681640625 499.47991943359375Q303.32000732421875 497.8798828125 282.1201171875 482.4199523925781Q260.92022705078125 466.96002197265625 246.12030029296875 443.5601501464844Q231.32037353515625 420.1602783203125 223.08041381835938 393.5804138183594Q214.8404541015625 367.00054931640625 214.8404541015625 343.16064453125V103Q214.8404541015625 54.32000732421875 240.62039184570312 37.660003662109375Q266.40032958984375 21 314.4403076171875 21V0Q291.4403076171875 1 248.32028198242188 2.5Q205.20025634765625 4 157.8802490234375 4Q120.36016845703125 4 82.86007690429688 2.5Q45.3599853515625 1 26.43994140625 0V21Q64.2398681640625 21 80.13983154296875 36.0Q96.039794921875 51 96.039794921875 93V407.280029296875Q96.039794921875 452.280029296875 81.31982421875 473.780029296875Q66.599853515625 495.280029296875 26.43994140625 495.280029296875V516.280029296875Q58.43994140625 513.280029296875 88.43994140625 513.280029296875Q124.16009521484375 513.280029296875 156.1002197265625 516.780029296875Q188.04034423828125 520.280029296875 214.8404541015625 527.280029296875V419.24041748046875Q226.48046875 447.2803955078125 246.50045776367188 472.62030029296875Q266.52044677734375 497.960205078125 294.0804138183594 514.1201171875Q321.640380859375 530.280029296875 354.7203369140625 530.280029296875Z" transform="translate(408.43,0) scale(0.11441,-0.11441)"/><path d="M148.7601318359375 770.4401245117188Q183.080322265625 770.4401245117188 205.12039184570312 750.6401062011719Q227.16046142578125 730.840087890625 227.16046142578125 699.3999633789062Q227.16046142578125 667.9598388671875 205.12039184570312 648.1598205566406Q183.080322265625 628.3598022460938 148.7601318359375 628.3598022460938Q114.43994140625 628.3598022460938 92.39987182617188 648.1598205566406Q70.35980224609375 667.9598388671875 70.35980224609375 699.3999633789062Q70.35980224609375 730.840087890625 92.39987182617188 750.6401062011719Q114.43994140625 770.4401245117188 148.7601318359375 770.4401245117188ZM214.8404541015625 527.280029296875V93.11487442407852Q214.8404541015625 51 230.74041748046875 36.0Q246.640380859375 21 284.4403076171875 21V0Q266.5547059524891 1 230.25745551530704 2.5Q193.960205078125 4 156.72015380859375 4Q120.20932711087741 4 82.62465256911058 2.5Q45.03997802734375 1 26.43994140625 0V21Q64.2398681640625 21 80.13983154296875 36.0Q96.039794921875 51 96.039794921875 93.13440307617188V407.1360260009766Q96.039794921875 452.280029296875 81.38719418174342 473.780029296875Q66.73459344161185 495.280029296875 26.43994140625 495.280029296875V516.280029296875Q58.43994140625 513.280029296875 88.43994140625 513.280029296875Q124.16009521484375 513.280029296875 156.1002197265625 516.780029296875Q188.04034423828125 520.280029296875 214.8404541015625 527.280029296875Z" transform="translate(460.72,0) scale(0.11441,-0.11441)"/><path d="M381.32037353515625 530.280029296875Q421.88043212890625 530.280029296875 447.700439453125 519.8000183105469Q473.52044677734375 509.32000732421875 489.5604248046875 491.6400146484375Q507.2803955078125 472.280029296875 514.9603881835938 442.280029296875Q522.640380859375 412.280029296875 522.640380859375 361.280029296875V93Q522.640380859375 51 538.5403442382812 36.0Q554.4403076171875 21 592.240234375 21V0Q574.2802124023438 1 537.5201721191406 2.5Q500.7601318359375 4 465.840087890625 4Q429.96002197265625 4 395.7399597167969 2.5Q361.5198974609375 1 344.2398681640625 0V21Q377.039794921875 21 390.43975830078125 36.0Q403.8397216796875 51 403.8397216796875 93V393.520263671875Q403.8397216796875 421.3201904296875 398.8397216796875 443.4801025390625Q393.8397216796875 465.6400146484375 378.57977294921875 478.75994873046875Q363.31982421875 491.8798828125 333.0799560546875 491.8798828125Q298.7601318359375 491.8798828125 272.06024169921875 472.67999267578125Q245.3603515625 453.4801025390625 230.10040283203125 419.98028564453125Q214.8404541015625 386.48046875 214.8404541015625 345.0806884765625V93Q214.8404541015625 51 228.40042114257812 36.0Q241.96038818359375 21 274.4403076171875 21V0Q257.48028564453125 1 224.22024536132812 2.5Q190.960205078125 4 156.0401611328125 4Q120.16009521484375 4 82.60003662109375 2.5Q45.03997802734375 1 26.43994140625 0V21Q64.2398681640625 21 80.13983154296875 36.0Q96.039794921875 51 96.039794921875 93V407.280029296875Q96.039794921875 452.280029296875 81.31982421875 473.780029296875Q66.599853515625 495.280029296875 26.43994140625 495.280029296875V516.280029296875Q58.43994140625 513.280029296875 88.43994140625 513.280029296875Q124.16009521484375 513.280029296875 156.1002197265625 516.780029296875Q188.04034423828125 520.280029296875 214.8404541015625 527.280029296875V424.0003662109375Q240.200439453125 483.0401611328125 284.7803955078125 506.66009521484375Q329.3603515625 530.280029296875 381.32037353515625 530.280029296875Z" transform="translate(495.61,0) scale(0.11441,-0.11441)"/><path d="M148.7601318359375 770.4401245117188Q183.080322265625 770.4401245117188 205.12039184570312 750.6401062011719Q227.16046142578125 730.840087890625 227.16046142578125 699.3999633789062Q227.16046142578125 667.9598388671875 205.12039184570312 648.1598205566406Q183.080322265625 628.3598022460938 148.7601318359375 628.3598022460938Q114.43994140625 628.3598022460938 92.39987182617188 648.1598205566406Q70.35980224609375 667.9598388671875 70.35980224609375 699.3999633789062Q70.35980224609375 730.840087890625 92.39987182617188 750.6401062011719Q114.43994140625 770.4401245117188 148.7601318359375 770.4401245117188ZM214.8404541015625 527.280029296875V93.11487442407852Q214.8404541015625 51 230.74041748046875 36.0Q246.640380859375 21 284.4403076171875 21V0Q266.5547059524891 1 230.25745551530704 2.5Q193.960205078125 4 156.72015380859375 4Q120.20932711087741 4 82.62465256911058 2.5Q45.03997802734375 1 26.43994140625 0V21Q64.2398681640625 21 80.13983154296875 36.0Q96.039794921875 51 96.039794921875 93.13440307617188V407.1360260009766Q96.039794921875 452.280029296875 81.38719418174342 473.780029296875Q66.73459344161185 495.280029296875 26.43994140625 495.280029296875V516.280029296875Q58.43994140625 513.280029296875 88.43994140625 513.280029296875Q124.16009521484375 513.280029296875 156.1002197265625 516.780029296875Q188.04034423828125 520.280029296875 214.8404541015625 527.280029296875Z" transform="translate(564.94,0) scale(0.11441,-0.11441)"/><path d="M863.560791015625 708V688Q830.8408203125 687 813.9808349609375 680.5Q797.120849609375 674 791.4408569335938 656.5Q785.7608642578125 639 785.7608642578125 602V106Q785.7608642578125 70 791.6008605957031 52.0Q797.4408569335938 34 814.1408386230469 28.0Q830.8408203125 22 863.560791015625 20V0Q838.000732421875 2 799.1806335449219 2.5Q760.3605346679688 3 720.5604248046875 3Q676.7603149414062 3 638.4402160644531 2.5Q600.1201171875 2 576.56005859375 0V20Q610.56005859375 22 628.06005859375 28.0Q645.56005859375 34 651.56005859375 52.0Q657.56005859375 70 657.56005859375 106V651.1998901367188L663.4801025390625 649.7999267578125L416.56005859375 -3.0799560546875H400.56005859375L138.9598388671875 643.6799926757812V141.6005859375Q138.9598388671875 95.68035888671875 145.13983154296875 70.3802490234375Q151.31982421875 45.08013916015625 171.4598388671875 34.340087890625Q191.599853515625 23.60003662109375 233.159912109375 20V0Q214.5198974609375 2 184.55987548828125 2.5Q154.599853515625 3 127.9598388671875 3Q103.91986083984375 3 79.21987915039062 2.5Q54.5198974609375 2 38.159912109375 0V20Q71.19989013671875 23.60003662109375 87.89987182617188 34.02008056640625Q104.599853515625 44.44012451171875 110.27984619140625 68.62020874023438Q115.9598388671875 92.80029296875 115.9598388671875 135.200439453125V602Q115.9598388671875 639 110.27984619140625 656.5Q104.599853515625 674 87.7398681640625 680.5Q70.8798828125 687 38.159912109375 688V708Q54.5198974609375 707 79.21987915039062 706.0Q103.91986083984375 705 127.9598388671875 705Q161.4801025390625 705 194.42031860351562 706.0Q227.36053466796875 707 252.000732421875 708L469.72052001953125 158.64111328125L448.5604248046875 142.64093017578125L660.7601318359375 705Q675.3201904296875 705 690.5002746582031 705.0Q705.6803588867188 705 720.5604248046875 705Q760.3605346679688 705 799.1806335449219 706.0Q838.000732421875 707 863.560791015625 708Z" transform="translate(627.41,0) scale(0.11441,-0.11441)"/><path d="M166.19989013671875 -7Q123.27984619140625 -7 93.27984619140625 9.300018310546875Q63.27984619140625 25.60003662109375 48.41986083984375 53.9200439453125Q33.55987548828125 82.24005126953125 33.55987548828125 117.6400146484375Q33.55987548828125 161 53.579864501953125 188.51998901367188Q73.599853515625 216.03997802734375 105.11984252929688 232.87997436523438Q136.63983154296875 249.719970703125 171.65982055664062 261.0599670410156Q206.6798095703125 272.39996337890625 238.19979858398438 282.89996337890625Q269.71978759765625 293.39996337890625 289.7397766113281 307.5599670410156Q309.759765625 321.719970703125 309.759765625 344.719970703125V415.36016845703125Q309.759765625 449.03997802734375 299.49981689453125 470.0799560546875Q289.2398681640625 491.11993408203125 270.159912109375 500.6999816894531Q251.0799560546875 510.280029296875 223.7999267578125 510.280029296875Q201.67999267578125 510.280029296875 177.66009521484375 504.0800476074219Q153.64019775390625 497.88006591796875 138.56024169921875 480.36016845703125Q162.68035888671875 473.4801025390625 177.32037353515625 455.0800476074219Q191.96038818359375 436.67999267578125 191.96038818359375 410.719970703125Q191.96038818359375 380.91986083984375 172.12030029296875 363.6997985839844Q152.28021240234375 346.479736328125 123.1201171875 346.479736328125Q90.60003662109375 346.479736328125 74.37997436523438 367.0597839355469Q58.159912109375 387.63983154296875 58.159912109375 415.11993408203125Q58.159912109375 442.719970703125 71.95993041992188 460.4800109863281Q85.75994873046875 478.24005126953125 109.280029296875 493.52008056640625Q134.52008056640625 509.840087890625 172.78012084960938 520.06005859375Q211.0401611328125 530.280029296875 257.0401611328125 530.280029296875Q300.6002197265625 530.280029296875 333.76031494140625 520.780029296875Q366.92041015625 511.280029296875 389.44049072265625 489.11993408203125Q413.8404541015625 465.75994873046875 421.200439453125 431.7399597167969Q428.5604248046875 397.719970703125 428.5604248046875 348.43994140625V73.6400146484375Q428.5604248046875 48.6400146484375 434.7803955078125 38.280029296875Q441.0003662109375 27.9200439453125 454.76031494140625 27.9200439453125Q464.80029296875 27.9200439453125 474.0002746582031 32.9200439453125Q483.20025634765625 37.9200439453125 494.960205078125 47L505.64019775390625 30Q484.3201904296875 13.03997802734375 461.0000915527344 3.019989013671875Q437.67999267578125 -7 404.39996337890625 -7Q370.91986083984375 -7 350.4798278808594 3.160003662109375Q330.039794921875 13.32000732421875 320.539794921875 32.17999267578125Q311.039794921875 51.03997802734375 310.71978759765625 77.83990478515625Q285.63983154296875 36.67999267578125 250.05987548828125 14.839996337890625Q214.47991943359375 -7 166.19989013671875 -7ZM221.080322265625 45.80029296875Q247.0401611328125 45.80029296875 269.1400146484375 59.840179443359375Q291.2398681640625 73.88006591796875 309.759765625 102.91986083984375V303.719970703125Q299.35980224609375 288 280.0398864746094 276.17999267578125Q260.719970703125 264.3599853515625 238.52008056640625 252.37997436523438Q216.3201904296875 240.39996337890625 196.30029296875 225.05996704101562Q176.2803955078125 209.719970703125 163.32046508789062 186.48001098632812Q150.36053466796875 163.24005126953125 150.36053466796875 127.72015380859375Q150.36053466796875 88.36016845703125 169.6204833984375 67.08023071289062Q188.88043212890625 45.80029296875 221.080322265625 45.80029296875Z" transform="translate(730.49,0) scale(0.11441,-0.11441)"/><path d="M207.760498046875 782.6799926757812V424.68035888671875Q233.1204833984375 483.72015380859375 277.700439453125 507.0000915527344Q322.2803955078125 530.280029296875 374.24041748046875 530.280029296875Q414.80047607421875 530.280029296875 440.6204833984375 519.8000183105469Q466.44049072265625 509.32000732421875 482.48046875 491.6400146484375Q500.200439453125 472.280029296875 507.88043212890625 442.280029296875Q515.5604248046875 412.280029296875 515.5604248046875 361.280029296875V93Q515.5604248046875 51 531.4603881835938 36.0Q547.3603515625 21 585.1602783203125 21V0Q567.2002563476562 1 530.4402160644531 2.5Q493.68017578125 4 458.7601318359375 4Q422.88006591796875 4 388.6600036621094 2.5Q354.43994140625 1 337.159912109375 0V21Q369.9598388671875 21 383.35980224609375 36.0Q396.759765625 51 396.759765625 93V393.520263671875Q396.759765625 421.3201904296875 391.759765625 443.4801025390625Q386.759765625 465.6400146484375 371.49981689453125 478.75994873046875Q356.2398681640625 491.8798828125 326 491.8798828125Q292.36016845703125 491.8798828125 265.6602783203125 473.3599853515625Q238.96038818359375 454.840087890625 223.36044311523438 421.6802673339844Q207.760498046875 388.52044677734375 207.760498046875 345.76068115234375V93Q207.760498046875 51 221.32046508789062 36.0Q234.88043212890625 21 267.3603515625 21V0Q250.40032958984375 1 217.14028930664062 2.5Q183.8802490234375 4 148.960205078125 4Q113.08013916015625 4 75.52008056640625 2.5Q37.96002197265625 1 19.3599853515625 0V21Q57.159912109375 21 73.05987548828125 36.0Q88.9598388671875 51 88.9598388671875 93V662.6799926757812Q88.9598388671875 707.6799926757812 74.2398681640625 729.1799926757812Q59.5198974609375 750.6799926757812 19.3599853515625 750.6799926757812V771.6799926757812Q51.3599853515625 768.6799926757812 81.3599853515625 768.6799926757812Q117.08013916015625 768.6799926757812 149.020263671875 772.1799926757812Q180.96038818359375 775.6799926757812 207.760498046875 782.6799926757812Z" transform="translate(788.72,0) scale(0.11441,-0.11441)"/><path d="M277.1201171875 530.280029296875Q365.1201171875 530.280029296875 414.94012451171875 477.4200439453125Q464.7601318359375 424.56005859375 464.7601318359375 309H124.5604248046875L123.24041748046875 328H352.759765625Q354.43975830078125 377 346.039794921875 418.5Q337.63983154296875 460 319.4999084472656 485.0Q301.3599853515625 510 272.16009521484375 510Q232.240234375 510 202.66036987304688 465.1200256347656Q173.08050537109375 420.24005126953125 166.72052001953125 319.280029296875L170.04052734375 314Q168.36053466796875 300.60003662109375 167.6805419921875 285.16009521484375Q167.00054931640625 269.72015380859375 167.00054931640625 253.960205078125Q167.00054931640625 185.3201904296875 187.56051635742188 139.520263671875Q208.1204833984375 93.7203369140625 240.74041748046875 71.58041381835938Q273.3603515625 49.44049072265625 307.84027099609375 49.44049072265625Q332.72015380859375 49.44049072265625 357.3200988769531 57.180450439453125Q381.9200439453125 64.92041015625 404.9200439453125 84.52035522460938Q427.9200439453125 104.12030029296875 446.52008056640625 138.8802490234375L465.56005859375 131.520263671875Q454.24005126953125 96.28021240234375 428.7600402832031 62.560150146484375Q403.280029296875 28.840087890625 364.0 7.4200439453125Q324.719970703125 -14 271.5198974609375 -14Q202.0799560546875 -14 150.25994873046875 16.75994873046875Q98.43994140625 47.5198974609375 69.81991577148438 106.49990844726562Q41.19989013671875 165.47991943359375 41.19989013671875 249.4801025390625Q41.19989013671875 340.0401611328125 71.11993408203125 402.58013916015625Q101.03997802734375 465.1201171875 154.44003295898438 497.7000732421875Q207.840087890625 530.280029296875 277.1201171875 530.280029296875Z" transform="translate(857.25,0) scale(0.11441,-0.11441)"/><path d="M381.32037353515625 530.280029296875Q421.88043212890625 530.280029296875 447.700439453125 519.8000183105469Q473.52044677734375 509.32000732421875 489.5604248046875 491.6400146484375Q507.2803955078125 472.280029296875 514.9603881835938 442.280029296875Q522.640380859375 412.280029296875 522.640380859375 361.280029296875V93Q522.640380859375 51 538.5403442382812 36.0Q554.4403076171875 21 592.240234375 21V0Q574.2802124023438 1 537.5201721191406 2.5Q500.7601318359375 4 465.840087890625 4Q429.96002197265625 4 395.7399597167969 2.5Q361.5198974609375 1 344.2398681640625 0V21Q377.039794921875 21 390.43975830078125 36.0Q403.8397216796875 51 403.8397216796875 93V393.520263671875Q403.8397216796875 421.3201904296875 398.8397216796875 443.4801025390625Q393.8397216796875 465.6400146484375 378.57977294921875 478.75994873046875Q363.31982421875 491.8798828125 333.0799560546875 491.8798828125Q298.7601318359375 491.8798828125 272.06024169921875 472.67999267578125Q245.3603515625 453.4801025390625 230.10040283203125 419.98028564453125Q214.8404541015625 386.48046875 214.8404541015625 345.0806884765625V93Q214.8404541015625 51 228.40042114257812 36.0Q241.96038818359375 21 274.4403076171875 21V0Q257.48028564453125 1 224.22024536132812 2.5Q190.960205078125 4 156.0401611328125 4Q120.16009521484375 4 82.60003662109375 2.5Q45.03997802734375 1 26.43994140625 0V21Q64.2398681640625 21 80.13983154296875 36.0Q96.039794921875 51 96.039794921875 93V407.280029296875Q96.039794921875 452.280029296875 81.31982421875 473.780029296875Q66.599853515625 495.280029296875 26.43994140625 495.280029296875V516.280029296875Q58.43994140625 513.280029296875 88.43994140625 513.280029296875Q124.16009521484375 513.280029296875 156.1002197265625 516.780029296875Q188.04034423828125 520.280029296875 214.8404541015625 527.280029296875V424.0003662109375Q240.200439453125 483.0401611328125 284.7803955078125 506.66009521484375Q329.3603515625 530.280029296875 381.32037353515625 530.280029296875Z" transform="translate(915.03,0) scale(0.11441,-0.11441)"/><path d="M500.96038818359375 783.3599853515625V109.32000732421875Q500.96038818359375 64.32000732421875 516.1803588867188 42.82000732421875Q531.4003295898438 21.32000732421875 570.5602416992188 21.32000732421875V0.32000732421875Q539.5602416992188 3.32000732421875 508.56024169921875 3.32000732421875Q472.840087890625 3.32000732421875 441.0599670410156 0.32000732421875Q409.27984619140625 -2.67999267578125 382.15972900390625 -10.67999267578125V663.3599853515625Q382.15972900390625 708.3599853515625 367.43975830078125 729.8599853515625Q352.71978759765625 751.3599853515625 312.55987548828125 751.3599853515625V772.3599853515625Q344.55987548828125 769.3599853515625 374.55987548828125 769.3599853515625Q410.280029296875 769.3599853515625 442.22015380859375 772.8599853515625Q474.1602783203125 776.3599853515625 500.96038818359375 783.3599853515625ZM267.27984619140625 530.280029296875Q311.27984619140625 530.280029296875 347.0597839355469 512.6401062011719Q382.8397216796875 495.00018310546875 399.039794921875 452.96038818359375L386.6798095703125 442.640380859375Q372.99981689453125 474.72015380859375 347.8199157714844 489.4000549316406Q322.6400146484375 504.0799560546875 290.960205078125 504.0799560546875Q236.12030029296875 504.0799560546875 201.90042114257812 443.719970703125Q167.6805419921875 383.3599853515625 168.36053466796875 257.96002197265625Q168.36053466796875 174.719970703125 181.78048706054688 122.82000732421875Q195.200439453125 70.9200439453125 220.90032958984375 46.9801025390625Q246.6002197265625 23.0401611328125 282.280029296875 23.0401611328125Q319.7999267578125 23.0401611328125 349.9598388671875 54.080047607421875Q380.1197509765625 85.11993408203125 384.87969970703125 142.6396484375L393.03961181640625 117.43939208984375Q381.19952392578125 53.59967041015625 344.3796081542969 19.799835205078125Q307.5596923828125 -14 246.55987548828125 -14Q186.159912109375 -14 139.659912109375 15.519989013671875Q93.159912109375 45.03997802734375 67.85989379882812 105.3599853515625Q42.55987548828125 165.67999267578125 42.55987548828125 258.9200439453125Q42.55987548828125 349.9200439453125 72.77984619140625 410.10003662109375Q102.99981689453125 470.280029296875 154.01980590820312 500.280029296875Q205.039794921875 530.280029296875 267.27984619140625 530.280029296875Z" transform="translate(984.36,0) scale(0.11441,-0.11441)"/><path d="M148.7601318359375 770.4401245117188Q183.080322265625 770.4401245117188 205.12039184570312 750.6401062011719Q227.16046142578125 730.840087890625 227.16046142578125 699.3999633789062Q227.16046142578125 667.9598388671875 205.12039184570312 648.1598205566406Q183.080322265625 628.3598022460938 148.7601318359375 628.3598022460938Q114.43994140625 628.3598022460938 92.39987182617188 648.1598205566406Q70.35980224609375 667.9598388671875 70.35980224609375 699.3999633789062Q70.35980224609375 730.840087890625 92.39987182617188 750.6401062011719Q114.43994140625 770.4401245117188 148.7601318359375 770.4401245117188ZM214.8404541015625 527.280029296875V93.11487442407852Q214.8404541015625 51 230.74041748046875 36.0Q246.640380859375 21 284.4403076171875 21V0Q266.5547059524891 1 230.25745551530704 2.5Q193.960205078125 4 156.72015380859375 4Q120.20932711087741 4 82.62465256911058 2.5Q45.03997802734375 1 26.43994140625 0V21Q64.2398681640625 21 80.13983154296875 36.0Q96.039794921875 51 96.039794921875 93.13440307617188V407.1360260009766Q96.039794921875 452.280029296875 81.38719418174342 473.780029296875Q66.73459344161185 495.280029296875 26.43994140625 495.280029296875V516.280029296875Q58.43994140625 513.280029296875 88.43994140625 513.280029296875Q124.16009521484375 513.280029296875 156.1002197265625 516.780029296875Q188.04034423828125 520.280029296875 214.8404541015625 527.280029296875Z" transform="translate(1051.86,0) scale(0.11441,-0.11441)"/><path d="M354.7203369140625 530.280029296875Q384.60040283203125 530.280029296875 404.9403991699219 517.8399963378906Q425.2803955078125 505.39996337890625 435.6603698730469 485.97991943359375Q446.04034423828125 466.55987548828125 446.04034423828125 444.2398681640625Q446.04034423828125 412.8397216796875 427.34027099609375 391.4396667480469Q408.64019775390625 370.03961181640625 377.840087890625 370.03961181640625Q349.47991943359375 370.03961181640625 331.3998718261719 385.6196594238281Q313.31982421875 401.19970703125 313.31982421875 428.43975830078125Q313.31982421875 452.2398681640625 325.099853515625 468.4599304199219Q336.8798828125 484.67999267578125 352.75994873046875 494.9200439453125Q342.2398681640625 501.719970703125 328.2398681640625 499.47991943359375Q303.32000732421875 497.8798828125 282.1201171875 482.4199523925781Q260.92022705078125 466.96002197265625 246.12030029296875 443.5601501464844Q231.32037353515625 420.1602783203125 223.08041381835938 393.5804138183594Q214.8404541015625 367.00054931640625 214.8404541015625 343.16064453125V103Q214.8404541015625 54.32000732421875 240.62039184570312 37.660003662109375Q266.40032958984375 21 314.4403076171875 21V0Q291.4403076171875 1 248.32028198242188 2.5Q205.20025634765625 4 157.8802490234375 4Q120.36016845703125 4 82.86007690429688 2.5Q45.3599853515625 1 26.43994140625 0V21Q64.2398681640625 21 80.13983154296875 36.0Q96.039794921875 51 96.039794921875 93V407.280029296875Q96.039794921875 452.280029296875 81.31982421875 473.780029296875Q66.599853515625 495.280029296875 26.43994140625 495.280029296875V516.280029296875Q58.43994140625 513.280029296875 88.43994140625 513.280029296875Q124.16009521484375 513.280029296875 156.1002197265625 516.780029296875Q188.04034423828125 520.280029296875 214.8404541015625 527.280029296875V419.24041748046875Q226.48046875 447.2803955078125 246.50045776367188 472.62030029296875Q266.52044677734375 497.960205078125 294.0804138183594 514.1201171875Q321.640380859375 530.280029296875 354.7203369140625 530.280029296875Z" transform="translate(1086.75,0) scale(0.11441,-0.11441)"/><path d="M166.19989013671875 -7Q123.27984619140625 -7 93.27984619140625 9.300018310546875Q63.27984619140625 25.60003662109375 48.41986083984375 53.9200439453125Q33.55987548828125 82.24005126953125 33.55987548828125 117.6400146484375Q33.55987548828125 161 53.579864501953125 188.51998901367188Q73.599853515625 216.03997802734375 105.11984252929688 232.87997436523438Q136.63983154296875 249.719970703125 171.65982055664062 261.0599670410156Q206.6798095703125 272.39996337890625 238.19979858398438 282.89996337890625Q269.71978759765625 293.39996337890625 289.7397766113281 307.5599670410156Q309.759765625 321.719970703125 309.759765625 344.719970703125V415.36016845703125Q309.759765625 449.03997802734375 299.49981689453125 470.0799560546875Q289.2398681640625 491.11993408203125 270.159912109375 500.6999816894531Q251.0799560546875 510.280029296875 223.7999267578125 510.280029296875Q201.67999267578125 510.280029296875 177.66009521484375 504.0800476074219Q153.64019775390625 497.88006591796875 138.56024169921875 480.36016845703125Q162.68035888671875 473.4801025390625 177.32037353515625 455.0800476074219Q191.96038818359375 436.67999267578125 191.96038818359375 410.719970703125Q191.96038818359375 380.91986083984375 172.12030029296875 363.6997985839844Q152.28021240234375 346.479736328125 123.1201171875 346.479736328125Q90.60003662109375 346.479736328125 74.37997436523438 367.0597839355469Q58.159912109375 387.63983154296875 58.159912109375 415.11993408203125Q58.159912109375 442.719970703125 71.95993041992188 460.4800109863281Q85.75994873046875 478.24005126953125 109.280029296875 493.52008056640625Q134.52008056640625 509.840087890625 172.78012084960938 520.06005859375Q211.0401611328125 530.280029296875 257.0401611328125 530.280029296875Q300.6002197265625 530.280029296875 333.76031494140625 520.780029296875Q366.92041015625 511.280029296875 389.44049072265625 489.11993408203125Q413.8404541015625 465.75994873046875 421.200439453125 431.7399597167969Q428.5604248046875 397.719970703125 428.5604248046875 348.43994140625V73.6400146484375Q428.5604248046875 48.6400146484375 434.7803955078125 38.280029296875Q441.0003662109375 27.9200439453125 454.76031494140625 27.9200439453125Q464.80029296875 27.9200439453125 474.0002746582031 32.9200439453125Q483.20025634765625 37.9200439453125 494.960205078125 47L505.64019775390625 30Q484.3201904296875 13.03997802734375 461.0000915527344 3.019989013671875Q437.67999267578125 -7 404.39996337890625 -7Q370.91986083984375 -7 350.4798278808594 3.160003662109375Q330.039794921875 13.32000732421875 320.539794921875 32.17999267578125Q311.039794921875 51.03997802734375 310.71978759765625 77.83990478515625Q285.63983154296875 36.67999267578125 250.05987548828125 14.839996337890625Q214.47991943359375 -7 166.19989013671875 -7ZM221.080322265625 45.80029296875Q247.0401611328125 45.80029296875 269.1400146484375 59.840179443359375Q291.2398681640625 73.88006591796875 309.759765625 102.91986083984375V303.719970703125Q299.35980224609375 288 280.0398864746094 276.17999267578125Q260.719970703125 264.3599853515625 238.52008056640625 252.37997436523438Q216.3201904296875 240.39996337890625 196.30029296875 225.05996704101562Q176.2803955078125 209.719970703125 163.32046508789062 186.48001098632812Q150.36053466796875 163.24005126953125 150.36053466796875 127.72015380859375Q150.36053466796875 88.36016845703125 169.6204833984375 67.08023071289062Q188.88043212890625 45.80029296875 221.080322265625 45.80029296875Z" transform="translate(1139.03,0) scale(0.11441,-0.11441)"/></g><rect x="470.0" y="209.0" width="1197.3" height="4.0" fill="#a9781f"/><g transform="translate(470.0,312.0)" fill="#a9781f"><path d="M105.1311818943839 0V700H378.44509639564126Q514.2011735121542 700 592.2682313495391 635.2774518021794Q670.3352891869238 570.5549036043587 670.3352891869238 455.6433361274099Q670.3352891869238 380.2652975691534 635.2240150880134 325.80951383067895Q600.1127409891031 271.3537300922045 534.8124476110645 242.16471081307628Q469.51215423302597 212.97569153394804 378.44509639564126 212.97569153394804H160.04568315171835L204.51508801341157 259.1341156747695V0ZM573.4178541492037 0 394.6404023470243 254H502.4023470243085L682.0243084660519 0ZM204.51508801341157 249.31098072087175 160.04568315171835 297.8474434199497H375.3780385582565Q471.3537300922045 297.8474434199497 520.7303017602683 339.4130343671417Q570.1068734283319 380.9786253143336 570.1068734283319 455.6433361274099Q570.1068734283319 531.3080469404862 520.7303017602683 572.3736378876781Q471.3537300922045 613.43922883487 375.3780385582565 613.43922883487H160.04568315171835L204.51508801341157 662.8202011735121Z" transform="translate(0.00,0) scale(0.09286,-0.09286)"/><path d="M607.2623637887679 0V700H706.6462699077955V0ZM105.1311818943839 0V700H204.51508801341157V0ZM195.29253981559094 312.219614417435V398.780385582565H615.6404023470243V312.219614417435Z" transform="translate(100.65,0) scale(0.09286,-0.09286)"/><path d="M105.1311818943839 0V700H599.2011735121542V613.43922883487H204.51508801341157V86.56077116512992H613.3566638725902V0ZM196.13704945515508 313.06412405699916V397.93587594300084H555.8901927912825V313.06412405699916Z" transform="translate(209.20,0) scale(0.09286,-0.09286)"/><path d="M395.3109807208717 -8.067057837384745Q256.79882648784576 -8.067057837384745 177.96500419111482 71.0Q99.1311818943839 150.06705783738474 99.1311818943839 302.28960603520534V700H198.51508801341157V305.82313495389775Q198.51508801341157 189.46940486169322 250.08067896060354 135.2483235540654Q301.6462699077955 81.02724224643755 396.15549036043586 81.02724224643755Q490.6647108130763 81.02724224643755 542.2303017602683 135.2483235540654Q593.7958927074602 189.46940486169322 593.7958927074602 305.82313495389775V700H691.4907795473596V302.28960603520534Q691.4907795473596 150.06705783738474 612.6569572506287 71.0Q533.8231349538977 -8.067057837384745 395.3109807208717 -8.067057837384745Z" transform="translate(304.56,0) scale(0.09286,-0.09286)"/><path d="M105.1311818943839 0V700H187.15842414082147L500.7347024308466 171.20410729253982H457.10980720871754L767.1525565800503 700H849.1797988264879L850.0243084660519 0H754.0184409052808L753.1739312657166 548.546102263202H775.5305951383068L500.0456831517184 84.6433361274099H454.2652975691534L176.0913663034367 548.546102263202H201.13704945515508V0Z" transform="translate(411.16,0) scale(0.09286,-0.09286)"/><path d="M-1.1341156747694896 0 316.2652975691534 700H414.8046940486169L733.048616932104 0H628.1311818943839L344.91156747694885 644.3080469404862H385.31391450125733L102.09430008382229 0ZM133.7347024308466 174.68608549874267 161.46940486169322 255.33528918692372H555.0884325230511L583.6676445934619 174.68608549874267Z" transform="translate(532.98,0) scale(0.09286,-0.09286)"/><path d="M243.73176865046102 0V613.43922883487H4V700H582.8474434199497V613.43922883487H343.1156747694887V0Z" transform="translate(634.10,0) scale(0.09286,-0.09286)"/><path d="M420.71724680519407 -8.067057837384745Q340.5229261334392 -8.067057837384745 272.30567932824516 18.855196982397317Q204.08843252305113 45.77745180217938 153.89941324392288 94.19970662196144Q103.71039396479463 142.6219614417435 75.86588432523051 207.6817382443338Q48.02137468566639 272.74151504692406 48.02137468566639 350Q48.02137468566639 427.25848495307594 75.86588432523051 492.31826175566624Q103.71039396479463 557.3780385582565 154.006828943692 605.9221521515327Q204.30326392258937 654.4662657448089 272.2293771415126 681.2666617910968Q340.15549036043586 708.0670578373847 420.53352891869235 708.0670578373847Q500.91156747694885 708.0670578373847 568.5950693739798 681.4168598142408Q636.2785712710107 654.7666617910968 686.3953627520184 606.4946049944588Q736.512154233026 558.2225481978206 764.3566638725902 492.871332774518Q792.2011735121542 427.52011735121545 792.2011735121542 349.9155490360436Q792.2011735121542 272.3109807208717 764.3566638725902 207.04421626152555Q736.512154233026 141.77745180217937 686.3953627520184 93.50539500554126Q636.2785712710107 45.23333820890316 568.5950693739798 18.58314018575921Q500.91156747694885 -8.067057837384745 420.71724680519407 -8.067057837384745ZM420.53352891869235 81.02724224643755Q479.0213746856664 81.02724224643755 528.4162863618019 101.08596244047726Q577.8111980379374 121.14468263451695 614.4590357331347 157.6515533876692Q651.1068734283319 194.15842414082147 671.5398155909472 243.09023549320725Q691.9727577535624 292.022046845593 691.9727577535624 350.2549463062835Q691.9727577535624 408.48784576697403 671.6347043144938 457.0921861302893Q651.296650875425 505.69652649360455 614.6083976127912 542.2502039569242Q577.9201443501574 578.803881420244 528.4707595179119 598.8883195869032Q479.0213746856664 618.9727577535624 420.53352891869235 618.9727577535624Q362.0456831517184 618.9727577535624 312.4001949574767 598.8609293126158Q262.754706763235 578.7491008716693 225.92095745782984 542.1455731091465Q189.08720815242472 505.5420453466238 168.66849929834143 456.8714205195331Q148.24979044425817 408.20079569244234 148.24979044425817 350.2787297825162Q148.24979044425817 292.3566638725901 168.6295816505372 243.42485252020433Q189.00937285681627 194.49304116781855 225.7729177779471 157.6930838697433Q262.53646269907796 120.89312657166806 312.29107292539817 100.9601844090528Q362.0456831517184 81.02724224643755 420.53352891869235 81.02724224643755Z" transform="translate(721.76,0) scale(0.09286,-0.09286)"/><path d="M105.1311818943839 0V700H204.51508801341157V86.56077116512992H584.3566638725902V0Z" transform="translate(832.90,0) scale(0.09286,-0.09286)"/><path d="M420.71724680519407 -8.067057837384745Q340.5229261334392 -8.067057837384745 272.30567932824516 18.855196982397317Q204.08843252305113 45.77745180217938 153.89941324392288 94.19970662196144Q103.71039396479463 142.6219614417435 75.86588432523051 207.6817382443338Q48.02137468566639 272.74151504692406 48.02137468566639 350Q48.02137468566639 427.25848495307594 75.86588432523051 492.31826175566624Q103.71039396479463 557.3780385582565 154.006828943692 605.9221521515327Q204.30326392258937 654.4662657448089 272.2293771415126 681.2666617910968Q340.15549036043586 708.0670578373847 420.53352891869235 708.0670578373847Q500.91156747694885 708.0670578373847 568.5950693739798 681.4168598142408Q636.2785712710107 654.7666617910968 686.3953627520184 606.4946049944588Q736.512154233026 558.2225481978206 764.3566638725902 492.871332774518Q792.2011735121542 427.52011735121545 792.2011735121542 349.9155490360436Q792.2011735121542 272.3109807208717 764.3566638725902 207.04421626152555Q736.512154233026 141.77745180217937 686.3953627520184 93.50539500554126Q636.2785712710107 45.23333820890316 568.5950693739798 18.58314018575921Q500.91156747694885 -8.067057837384745 420.71724680519407 -8.067057837384745ZM420.53352891869235 81.02724224643755Q479.0213746856664 81.02724224643755 528.4162863618019 101.08596244047726Q577.8111980379374 121.14468263451695 614.4590357331347 157.6515533876692Q651.1068734283319 194.15842414082147 671.5398155909472 243.09023549320725Q691.9727577535624 292.022046845593 691.9727577535624 350.2549463062835Q691.9727577535624 408.48784576697403 671.6347043144938 457.0921861302893Q651.296650875425 505.69652649360455 614.6083976127912 542.2502039569242Q577.9201443501574 578.803881420244 528.4707595179119 598.8883195869032Q479.0213746856664 618.9727577535624 420.53352891869235 618.9727577535624Q362.0456831517184 618.9727577535624 312.4001949574767 598.8609293126158Q262.754706763235 578.7491008716693 225.92095745782984 542.1455731091465Q189.08720815242472 505.5420453466238 168.66849929834143 456.8714205195331Q148.24979044425817 408.20079569244234 148.24979044425817 350.2787297825162Q148.24979044425817 292.3566638725901 168.6295816505372 243.42485252020433Q189.00937285681627 194.49304116781855 225.7729177779471 157.6930838697433Q262.53646269907796 120.89312657166806 312.29107292539817 100.9601844090528Q362.0456831517184 81.02724224643755 420.53352891869235 81.02724224643755Z" transform="translate(921.21,0) scale(0.09286,-0.09286)"/><path d="M421 -8.067057837384745Q340.46647108130765 -8.067057837384745 272.35519698239733 18.432942162615255Q204.24392288348702 44.932942162615255 153.97715842414084 93.35519698239732Q103.71039396479463 141.77745180217937 75.86588432523051 207.04421626152555Q48.02137468566639 272.3109807208717 48.02137468566639 350Q48.02137468566639 427.6890192791283 75.86588432523051 492.95578373847445Q103.71039396479463 558.2225481978206 154.39941324392288 606.6448030176027Q205.08843252305113 655.0670578373847 273.1997066219614 681.5670578373847Q341.3109807208717 708.0670578373847 422.6890192791283 708.0670578373847Q506.3566638725901 708.0670578373847 575.190486169321 681.0Q644.0243084660519 653.9329421626153 692.4023470243085 600.487845766974L629.731768650461 537.5062866722549Q586.7988264878458 580.1282481139983 536.4771584241408 599.5505029337803Q486.15549036043586 618.9727577535624 426.91156747694885 618.9727577535624Q366.57921207041073 618.9727577535624 315.4800922045264 598.9620704107292Q264.3809723386421 578.951383067896 226.7483235540654 542.7409891031014Q189.1156747694887 506.5305951383068 168.68273260687343 457.43147527242246Q148.24979044425817 408.3323554065381 148.24979044425817 350Q148.24979044425817 292.51215423302597 168.68273260687343 243.41303436714165Q189.1156747694887 194.31391450125733 226.7483235540654 157.68126571668063Q264.3809723386421 121.04861693210394 315.05783738474435 101.03792958927075Q365.7347024308466 81.02724224643755 426.06705783738477 81.02724224643755Q481.93294216261523 81.02724224643755 533.2546102263202 98.49371332774518Q584.5762782900251 115.9601844090528 628.8872590108969 156.89312657166806L685.6462699077955 81.08843252305113Q633.8901927912825 36.932942162615255 564.2118608549874 14.432942162615255Q494.53352891869235 -8.067057837384745 421 -8.067057837384745ZM685.6462699077955 81.08843252305113 589.7958927074602 94.06705783738474V353.9786253143336H685.6462699077955Z" transform="translate(1032.36,0) scale(0.09286,-0.09286)"/><path d="M273.8872590108969 0V267.80176026823136L296.6219614417435 206.35373009220453L-3.512154233025985 700H103.09430008382229L356.29253981559094 283.4023470243085H297.6219614417435L551.6647108130762 700H650.6705783738474L350.53646269907796 206.35373009220453L373.27116512992455 267.80176026823136V0Z" transform="translate(1137.19,0) scale(0.09286,-0.09286)"/></g></svg>